<?xml version="1.0" encoding="UTF-8"?>
<!DOCTYPE svg PUBLIC "-//W3C//DTD SVG 1.1//EN" "http://www.w3.org/Graphics/SVG/1.1/DTD/svg11.dtd">
<!-- Creator: CorelDRAW 2020 (64-Bit) -->
<svg xmlns="http://www.w3.org/2000/svg" xml:space="preserve" width="120mm" height="120mm" version="1.1" style="shape-rendering:geometricPrecision; text-rendering:geometricPrecision; image-rendering:optimizeQuality; fill-rule:evenodd; clip-rule:evenodd"
viewBox="0 0 11999.98 11999.98"
 xmlns:xlink="http://www.w3.org/1999/xlink"
 xmlns:xodm="http://www.corel.com/coreldraw/odm/2003">
 <defs>
  <style type="text/css">
   <![CDATA[
    .fil0 {fill:none}
    .fil7 {fill:#FEFEFE}
    .fil4 {fill:black}
    .fil9 {fill:black}
    .fil6 {fill:#3534F1}
    .fil3 {fill:#DDA033}
    .fil1 {fill:#FFF500}
    .fil8 {fill:#FEFEFE;fill-rule:nonzero}
    .fil2 {fill:#00143D;fill-rule:nonzero}
    .fil10 {fill:#DDA033;fill-rule:nonzero}
    .fil5 {fill:#FFF500;fill-rule:nonzero}
   ]]>
  </style>
 </defs>
 <g id="Layer_x0020_1">
  <metadata id="CorelCorpID_0Corel-Layer"/>
  <rect class="fil0" x="-0.01" y="-0.01" width="11999.98" height="11999.99"/>
  <g id="_1156649760">
   <path id="Warna_x0020_Kelopak_x0020_Melati" class="fil1" d="M9725.48 6707.4c12.57,3.36 25,6.95 37.7,10.14 722.56,274.8 1114.87,-179.56 1221.21,-1403.06 40.58,-446.72 46.87,-847.34 88.78,-1282.99 -339.33,-360.43 -624.41,-743.26 -978.37,-1089.96 -841.37,-843.58 -1248.14,-922.72 -1670.81,-285.41 -66.36,-51.05 -134.49,-99.95 -204.28,-146.79l0.13 -0.23c492.8,-581.45 168.42,-1083.66 -998.68,-1559.83 -425.59,-175.47 -816.57,-305.07 -1230.88,-478.33 -458.36,201.55 -921.92,346.17 -1371.32,565.48 -1091.4,517.2 -1292.29,868.54 -790.72,1459.25l0.1 0.13c-70.07,46.4 -138.54,94.88 -205.2,145.53l-7.68 -9.35c-417.98,-634.18 -1010.77,-490.19 -1838.41,439.01 -303.63,338.27 -551.56,658.82 -849.51,987.37 56.03,485.03 54.61,957.2 130.82,1439.46 170.02,1166.37 452.52,1460.21 1186.83,1180.17 14.68,-4.91 29.08,-10.18 43.58,-15.25 23.81,79.04 50.02,157.06 78.93,233.83 -18.17,6.46 -36.38,12.84 -54.55,19.76 -751.15,189.54 -793.13,780.71 -137.55,1831.18 237.95,384.54 475.72,712.23 705.85,1088.54 493.01,98.21 955.69,245.43 1452.19,324.14 1196.48,203.66 1571.97,33.92 1524.22,-729.86 -0.41,-21.77 -1.33,-43.34 -2.17,-64.94 52.5,2.04 105.25,3.36 158.3,3.36 31.89,0 63.68,-0.4 95.36,-1.16 0.75,24.51 1.77,49.04 3.3,73.74 -46.26,751.3 520.58,972.72 1753.4,692.71 450.69,-100.62 845.54,-218.62 1285.77,-314.59 248.64,-424.32 536,-805.54 766.64,-1239.12 569.46,-1040.49 519.02,-1439.22 -244.8,-1631.26 -10.19,-3.03 -20.35,-5.7 -30.54,-8.6 29.96,-76.54 57.5,-154.23 82.36,-233.07z"/>
   <path id="Garis_x0020_Luar_x0020_Kelopak_x0020_Melati" class="fil2" d="M9755.09 6661.41l-14.58 -3.86 -0.04 0.13 -51.56 -14.04 -15.45 49.03c-4.97,15.78 -10.99,34.13 -17.98,54.88 -7.17,21.31 -14.17,41.48 -20.99,60.71 -8.3,23.43 -15.46,43.27 -21.42,59.32l-0.14 0c-7.99,21.54 -14.98,39.95 -20.89,55.08l-20.25 51.72 6.39 1.82c28.51,8.13 57.07,16.28 81.52,22.8 176.13,44.22 311.55,99.34 407.68,171.23 100.04,74.82 157.84,167.19 174.7,283.27 17.79,122.28 -5.88,271.97 -69.57,455.53 -62.32,179.56 -163.13,392.38 -301.1,644.68l-0.51 1.53 -0.97 1.82c-65.73,123.57 -136.68,243.71 -210.24,362.17 -71.9,115.77 -148.15,232.57 -224.51,349.55 -53.6,82.12 -107.28,164.38 -157.74,243.54 -51.19,80.31 -102.41,162.64 -153.55,248.78l-7.77 13.08 -14.97 3.32c-105.73,23.46 -210.31,48.49 -314.45,74.34 -110.68,27.47 -208.58,52.68 -306.75,77.96l0 0.14 -2.62 0.67 -0.03 -0.13c-202.54,52.12 -406.86,104.71 -623.88,153.08 -300.98,68.38 -560.71,106.59 -779.88,114.22 -221.68,7.72 -402.44,-15.9 -542.96,-71.25 -133.13,-52.43 -229.69,-136.22 -290.37,-251.69 -59.69,-113.59 -83.84,-256.98 -73.18,-430.47l0 -0.14c1.87,-28.75 -0.93,-71.88 -3.45,-110.69l-1.19 -18.57c-123.26,2.2 -239.8,0.73 -363.11,-3.65l0.46 9.47c1.91,39.18 3.87,79.23 3.87,114.65 10.78,175.39 -1.52,316.92 -42.25,427.65 -42.46,115.42 -115.02,197.22 -223.32,248.5 -114.12,54.02 -267.85,78.39 -467.02,76.39 -195.34,-1.96 -434.91,-29.13 -724.47,-78.3l-4.02 -0.55c-281.87,-44.66 -556.32,-112.67 -831.62,-180.88 -1.23,0 -4.74,-1.16 -6.11,-1.52 -187.44,-46.42 -375.55,-93.01 -573.39,-133.46l-14.9 -3.04 -7.98 -12.94c-111.22,-180.21 -225.78,-352.12 -341.17,-525.31l-0.9 -1.35c-114.31,-171.54 -229.6,-344.57 -343.81,-529.48 -160.22,-256.6 -278.03,-484.48 -353.29,-684.36 -76.24,-202.51 -109.02,-376.94 -98.14,-524.06 10.32,-139.43 62.72,-254.66 157.29,-346.42 92.76,-90 225.58,-156.44 398.59,-200.08l0.13 0c25.3,-6.27 65.46,-21.57 100.26,-34.82l9.74 -3.71 -18.21 -48.34c-7.02,-18.66 -13.85,-37.3 -20.43,-55.8 -6.16,-17.34 -12.96,-37.04 -20.29,-58.8 -7.11,-21.12 -13.76,-41.29 -19.89,-60.39 -6.83,-21.32 -12.66,-39.96 -17.41,-55.75l-16.04 -53.35 -7.19 2.66c-30.09,11.12 -61.55,22.75 -92.76,32.01 -169.07,64.46 -311.93,97.04 -433.3,93.73 -125.96,-3.43 -228.33,-44.96 -311.88,-128.8 -88.55,-88.82 -160.18,-223.38 -219.9,-408.06 -58.67,-181.39 -106.24,-411.93 -147.63,-695.95l-0.41 -2.81 0 -1.3c-21.58,-137.22 -36.9,-273.76 -49.07,-410.02 -12.51,-140.22 -21.43,-275.07 -30.33,-410.1 -6.2,-94.14 -12.44,-188.5 -20.04,-287 -7.44,-96.49 -15.93,-192.9 -26.45,-288.86l-1.71 -15.57 10.53 -11.72c139.68,-155.34 272.51,-313.6 406.24,-472.94l0.14 0 3.69 -4.39 -0.08 -0.07c64.42,-76.79 129.18,-153.97 199.21,-235.97 67.22,-78.72 137.75,-159.91 214.54,-245.63l-0.08 -0.07c201.92,-226.71 388.94,-405.69 561.89,-537 174.71,-132.65 335.36,-216.62 482.77,-251.95 139.32,-33.4 267.95,-20.76 386.68,37.82 116.79,57.62 223.02,159.66 319.46,305.95 11.76,17.68 28.4,37.03 44.35,55.58l43.41 -33.02c18.48,-14.04 34.43,-25.97 48.38,-36.22 19.53,-14.34 36.53,-26.69 51.38,-37.32l0.13 0c15.71,-11.13 31.74,-22.28 48.13,-33.46 16.66,-11.36 34.77,-23.53 54.39,-36.51l45.74 -30.25 -34.78 -44.88c-115.7,-136.28 -191.9,-258.19 -226.11,-371.36 -35.6,-117.77 -26.36,-225.63 30.39,-329.29 59.79,-109.17 169.52,-216.71 331.95,-328.66 159.29,-109.78 370,-224.55 634.84,-350.12l2.42 -1.38c128.08,-62.49 258.46,-119.33 390.04,-173.36 130.31,-53.51 260.81,-103.81 391.52,-154.16l1.16 -0.45c185.18,-71.34 370.97,-142.92 550.49,-220.64l13.64 -5.9 13.65 5.63c196.95,81.41 394.71,155.55 593.88,230.19l1.43 0.49c95.55,35.85 191.6,71.86 294.82,111.55 98.56,37.91 197.85,77.02 298.19,118.3l0.5 0 6.43 2.62c284.83,116.19 518.08,233.33 700.06,352.13 184.25,120.28 316.38,242.66 396.7,367.88 76.16,118.68 103.59,241.87 82.68,370.24 -20.51,125.96 -87.83,255.67 -201.53,389.85l-4.12 4.88 -25.35 43.02 40.28 27c20.08,13.46 37.23,25.15 51.62,35.14 16.43,11.5 33.38,23.47 50.68,35.9 16.65,11.96 32.79,23.79 48.53,35.5 16.74,12.47 33.59,25.22 50.49,38.21l47.66 36.73 32.76 -49.43c97.41,-146.91 193.12,-253.33 293.31,-318.7 103.69,-67.65 211.33,-91.47 329.25,-70.77 124.73,21.88 263.54,90.07 423.12,205.2 156.76,113.1 334.24,271.93 538.96,477.18l1.17 1.14c100.09,98.02 195.71,200.31 289.14,304.79 94.7,105.89 184.36,210.74 274.1,315.72 63.95,74.77 128.04,149.7 190,220.6 63.51,72.66 128.69,145.63 197.02,219.02l10.67 11.47 -1.44 15.68c-9.65,105.07 -17.46,209.46 -24.3,313.65 -6.89,104.69 -12.58,205.45 -18.28,306.55 -5.69,101.05 -11.43,202.58 -18.09,304.14 -6.69,101.92 -14.6,207.8 -24.87,321.02l0.13 0.01c-25.95,298.88 -68.76,550.45 -129.03,755.24 -60.96,207.14 -140.08,366.78 -237.95,479.45 -92.62,106.63 -204.53,169.76 -336.26,189.96 -129.22,19.8 -276.82,-2.24 -443.34,-65.55 -7.46,-2.81 -18.09,-5.49 -28.33,-8.05zm524.84 172.61c140.28,-28.83 262.36,-103.09 366.82,-223.34 103.88,-119.6 188.01,-285.86 253.05,-499.41 65.68,-215.66 111.78,-479.59 138.97,-792.35l0.14 -0.14c9.41,-103.58 17.18,-209.08 24.09,-315.27 6.95,-106.71 12.8,-210.29 18.6,-313.36 6.17,-109.59 12.34,-218.75 19.45,-325.75l0 -0.13c7.16,-107.59 15.53,-216.47 26.27,-328.25l2.15 -22.38 -15.61 -16.59c-141.97,-150.82 -275.97,-307.48 -409.47,-463.58l-0.41 -0.48c-91.79,-107.35 -183.45,-214.54 -275.55,-317.43 -93.35,-104.3 -190.11,-207.65 -293.71,-309.19l-0.27 -0.27c-215.47,-216.05 -404.16,-383.26 -573.52,-502.36 -166.66,-117.2 -313.85,-187.27 -448.8,-210.95 -131.23,-23.02 -248.76,-4.96 -358.56,53.51 -112.19,59.74 -217.56,161.67 -322.11,304.98l-20.58 28.21 -113.01 -81.1 21.42 -28.72c106.26,-142.49 165.33,-280.49 176.8,-414.64 11.38,-133.07 -24.03,-263.62 -106.58,-392.25 -85,-132.51 -222.1,-261.37 -411.61,-387.38 -191.63,-127.43 -436.47,-251.65 -734.85,-373.46l-0.14 -0.14c-103.79,-42.79 -204.7,-82.56 -303.94,-120.7 -96.59,-37.13 -198.04,-75.16 -299.16,-113.05l-0.44 -0.16c-206.41,-77.36 -411.26,-154.14 -627.14,-244.43l-22.43 -9.38 -22.2 9.75c-195.08,85.83 -388.32,160.29 -580.9,234.49 -0.29,0.29 -1.01,0.47 -1.42,0.63 -265.45,102.19 -529.99,204.13 -790.21,330.88l-0.42 0.13c-279.68,132.53 -502.72,255.36 -672.14,375.17 -166.66,117.87 -280.58,232.15 -344.75,349.32 -62.3,113.79 -79.9,227.84 -55.32,347.49 25.14,122.31 94.31,251.82 204.78,393.87l22.64 29.12 -114.44 80.72 -20.46 -27.63c-107.69,-145.37 -225.87,-244.91 -355.29,-298.47 -128.54,-53.2 -269.31,-61.42 -423.07,-24.55 -156.31,37.45 -325.25,124.18 -507.72,260.21 -184.32,137.41 -381.76,324.75 -593.27,562.04l-0.14 0c-70.53,78.58 -140.8,159.57 -210.74,241.51 -67.1,78.61 -136.19,160.95 -204.95,242.91l-2.29 2.73c-137.65,164.03 -274.38,326.94 -431.32,500l-15.37 16.98 2.58 22.5c11.83,102.55 21.1,204.34 29.05,305.6 7.72,98.39 14.53,201.05 21.29,303.6 9.26,140.46 18.54,280.69 30.64,416.12 12.34,137.99 27.95,276.46 50.05,416.02l0.14 0.55c43.58,298.68 95.06,541.97 160.05,734.67 63.97,189.7 140.81,329.87 235.91,425.28 96.52,96.82 208.3,148.93 340.38,160.84l0.14 0c135.18,12.2 292.79,-17.17 477.85,-83.38l33.68 -12.05 45.62 135.07 -35.84 9.93c-190.1,52.68 -334.98,131.18 -434.73,236.3 -98.41,103.7 -153.41,234.43 -165.16,393.01 -11.52,155.63 21.26,337.94 98.16,547.77 77.8,212.32 200.59,452.21 368.15,720.52l0 0.13c57.11,92.29 115.37,183.06 174.06,272.86 60.01,91.83 116.12,176.04 171.93,259.78 59.58,89.41 118.94,178.49 180.58,273.04 60.24,92.41 120,186.06 178.93,282.44l12.12 19.83 23.93 4.75c201.12,40.05 406.48,90.93 611.11,141.63l2.79 0.69c275.56,68.26 550.24,136.32 839.49,182.37l0.28 0c306.99,52.25 561.94,80.05 771.26,79.69 206.29,-0.36 367.98,-27.99 491.42,-86.44 126.48,-59.89 212.66,-148.57 264.81,-269.43 53.47,-123.93 72.13,-282.3 62.41,-478.42l-1.85 -37.19 146.92 1.59 -1.77 36.39c-9.6,196.32 21.17,357.85 93.16,484.94 71.25,125.81 183.83,218.99 338.5,279.93 149.55,58.91 338.92,85.11 568.86,79.02 232.27,-6.14 505.66,-45.28 820.94,-116.9l0.14 0c217.73,-48.62 422.26,-101.26 624.99,-153.4l7.93 -2.04c216.93,-55.84 432.26,-111.28 652.34,-159.22l23.63 -5.13 11.77 -20.09c104.48,-178.28 216.09,-349.29 327.3,-519.73l1.14 -1.75c75.82,-116.15 151.53,-232.13 226.73,-353.2 74.12,-119.34 145.68,-240.46 212.18,-365.24l0.14 -0.27c145.93,-266.65 251.85,-492.95 316.12,-686.03 63.24,-189.95 86.05,-347.2 66.92,-478.75 -19.03,-130.96 -76.36,-235.36 -173.25,-319.42 -99.43,-86.26 -240.89,-152.18 -425.53,-204.08l-36.1 -10.14 46.64 -132.94 32.93 11.24c181.92,62.13 343.48,78.93 485.27,49.78z"/>
  </g>
  <g id="Kelopak_x0020_Bunga_x0020_Seruni">
   <path class="fil3" d="M5749.61 2217.36c584.33,23.79 643.75,449.47 554.15,980.91 -99.56,-11.95 -200.85,-18.25 -303.63,-18.25 -49.28,0 -98.19,1.57 -146.79,4.36 -38.75,-172.77 -62.45,-452.5 -58.69,-578.21 97.49,-99.51 114.73,-262.29 -45.04,-388.81z"/>
   <path class="fil3" d="M6503.78 2243.47c565.82,148.91 532.05,577.76 330.04,1077.83 -140.29,-49.13 -286.24,-86.21 -436.6,-110.06 -0.86,-177.02 36.21,-456.16 66.98,-578.36 116.6,-76.24 168.42,-231.51 39.58,-389.41z"/>
   <path class="fil3" d="M7234.71 2431.08c521,267.27 395.24,679.27 89.95,1124.61 -127.03,-78.58 -261.51,-146.28 -402.2,-201.63 37.09,-173.04 133.49,-438.29 189.89,-551.18 130.27,-49.38 214.25,-189.89 122.36,-371.8z"/>
   <path class="fil3" d="M7908.24 2771.44c451.63,373.22 239.73,748.77 -154.6,1118.3 -107.66,-104.21 -224.51,-198.95 -349.32,-282.79 73.22,-161.05 224.94,-400.33 304.49,-498.71 137.83,-20.24 250.06,-139.4 199.43,-336.8z"/>
   <path class="fil3" d="M8492.85 3248.6c360.85,461.6 73.15,782.81 -391.39,1058.94 -83.21,-125.17 -177.22,-242.5 -280.84,-350.61 105.99,-141.57 306.08,-343.15 405.07,-422.26 138.96,9.87 274.18,-82.39 267.16,-286.07z"/>
   <path class="fil3" d="M8961.23 3840.3c253.11,528.2 -96.59,780.08 -609.4,949.88 -54.6,-140.78 -121.44,-275.47 -199.28,-402.7 133.97,-115.47 372.62,-269.27 486.27,-325.24 133.6,39.51 285.49,-21.53 322.41,-221.94z"/>
   <path class="fil3" d="M9291.47 4518.82c133.64,570.21 -261.93,741.04 -799.15,796.67 -23.09,-150.22 -59.53,-296.04 -107.9,-436.29 155.71,-83.94 421.54,-182.72 544.47,-212.92 121.98,67.3 283.43,40.34 362.58,-147.46z"/>
   <path class="fil3" d="M9468.14 5252.48c7.95,585.5 -414.96,667.39 -951.43,606.31 3.2,-51.99 5.02,-104.36 5.02,-157.16 0,-98.83 -5.88,-196.29 -16.94,-292.16 170.1,-48.5 450.98,-87.85 577.54,-90.92 104.67,91.95 268.15,100.33 385.81,-66.07z"/>
   <path class="fil3" d="M9482.97 6006.97c-117.97,572.88 -547.77,562.6 -1057.85,388.17 40.69,-142.57 69.12,-290.31 84.16,-441.99 176.6,-10.68 458.64,11.24 582.7,35.4 82.45,112.3 240.3,155.62 390.99,18.42z"/>
   <path class="fil3" d="M9335.27 6746.99c-238.19,533.78 -655.34,431.85 -1115.62,152.28 71.04,-131.37 130.62,-269.8 177.71,-413.9 174.83,27.76 444.38,109.48 560.02,159.61 56.39,127.39 201.24,203.64 377.89,102.01z"/>
   <path class="fil3" d="M9031.95 7437.99c-347.14,469.8 -732.36,281.1 -1121.54,-90.4 98.06,-113.71 186.03,-236.31 262.78,-366.35 164.75,64.85 409.67,202.21 511.64,275.88 27.68,136.54 152.76,242.13 347.12,180.87z"/>
   <path class="fil3" d="M8587.19 8047.62c-439.55,383.79 -774.95,117.68 -1074.94,-327.94 120.67,-90.56 232.84,-191.78 335.36,-302.1 146.92,98.91 355.88,285.12 439.44,378.79 -2.31,139.29 97.14,269.3 300.14,251.25z"/>
   <path class="fil3" d="M8021.77 8547.4c-511.11,279.97 -781.43,-50.81 -978.55,-549.42 138.13,-62.85 269.51,-137.88 392.95,-223.56 122.09,128.42 285.23,354.02 346.5,463.08 -32.2,135.54 36.98,283.9 239.1,309.9z"/>
   <path class="fil3" d="M7362.15 8913.95c-558.86,163.42 -751.92,-216.93 -837.36,-745.54 149.56,-31.65 294.2,-76.58 432.67,-133.45 91.42,151.86 201.54,405.72 237.79,524.95 -60.58,125.44 -24.91,285.2 166.9,354.04z"/>
   <path class="fil3" d="M6639.16 9130.15c-580.58,39.45 -687.59,-372.99 -657.58,-907.15 6.19,0.05 12.35,0.23 18.54,0.23 147.72,0 292.43,-12.83 433.19,-37.2 56.47,168.07 109.2,438.58 118.94,562.48 -86.13,109.48 -85.63,273.18 86.91,381.64z"/>
   <path class="fil3" d="M5886.6 9185.88c-574.8,-86.17 -591.3,-511.05 -447.74,-1025.43 145.53,33.08 295.88,53.48 449.77,60.2 18.88,176.32 12.21,450.98 -4.86,573.83 -107.66,88.41 -142.36,248.38 2.83,391.4z"/>
   <path class="fil3" d="M5139.64 9078.53c-542.48,-207.57 -467.72,-625.65 -217.34,-1096.77 135.97,64.38 278.63,116.9 426.6,156.39 -19.71,176.28 -84.95,441.63 -127.89,557.52 -124.15,63.21 -192.42,211.99 -81.37,382.86z"/>
   <path class="fil3" d="M4433.22 8813.14c-485.08,-319.28 -322.38,-711.42 23.29,-1117.61 119.54,92.67 247.65,174.83 382.91,245.12 -57.26,167.89 -177.71,412.29 -244.43,516.07 -134.83,35.04 -233.5,165.66 -161.77,356.42z"/>
   <path class="fil3" d="M3800.36 8402.1c-405.01,-415.98 -162.03,-763.9 262.66,-1086.23 97.29,116.62 204.91,224.28 321.45,321.67 -92.05,151.64 -262.08,364.28 -349.51,451.24 -139.21,5.24 -263.64,111.6 -234.6,313.32z"/>
   <path class="fil3" d="M3270.64 7864.63c-306.01,-493.14 5.75,-780.67 489.5,-1004.13 70.21,135.42 152.35,263.64 245.01,383.33 -122.54,128.27 -334.05,299.16 -438.03,365.23 -137.09,-24.81 -281.47,52.32 -296.48,255.57z"/>
   <path class="fil3" d="M2868.85 7225.85c-192.87,-547.45 173.5,-761.23 694.08,-875.47 39.37,148.26 91.89,291.15 156.26,427.36 -147.3,98.88 -390.21,220.11 -505.86,262.25 -128.55,-53.69 -286.13,-9.41 -344.48,185.86z"/>
   <path class="fil3" d="M2613.77 6515.64c-70.75,-576.53 333.67,-706.33 867.21,-705.82 6.52,154.28 26.82,304.97 59.84,450.87 -165.1,64.93 -428.62,131.18 -550.68,147.48 -114,-80.06 -277.43,-70.69 -376.37,107.47z"/>
   <path class="fil3" d="M2517.3 5767.21c54.86,-578.42 477.93,-618.11 999.09,-502.81 -24.83,142.02 -37.87,288.1 -37.87,437.23 0,5.24 0.17,10.44 0.2,15.67 -175.14,28.1 -447.74,36.2 -570.74,25.86 -94.13,-102.71 -255.74,-128.68 -390.68,24.05z"/>
   <path class="fil3" d="M2583.98 5015.54c178.01,-553.46 600.14,-500.88 1084.71,-275.89 -57.34,138.81 -102.59,283.86 -134.6,433.83 -177.09,-10.16 -445.39,-60.9 -563.4,-97.45 -69.85,-120.55 -222.11,-180.65 -386.71,-60.49z"/>
   <path class="fil3" d="M2810.67 4295.75c293.15,-502.81 694.69,-359.82 1120.11,-35.14 -86.29,123.68 -161.79,255.42 -225.12,393.91 -170.78,-47.84 -422.71,-155.36 -530.32,-216.56 -42.3,-132.74 -178.09,-224.17 -364.67,-142.21z"/>
   <path class="fil3" d="M3186.79 3641.54c394.8,-428.51 756.58,-201.6 1102.6,207.77 -111.03,102.58 -212.84,214.97 -304,335.88 -156.59,-83.18 -380.77,-243.19 -473.03,-326.39 -12.78,-138.72 -125.74,-257.2 -325.57,-217.26z"/>
   <path class="fil3" d="M3694.73 3083.46c478.06,-333.88 782.69,-33.79 1032.73,441 -130.76,76.6 -254,164.61 -368.35,262.71 -135.17,-114.7 -320.66,-320.13 -393.11,-421.54 17.34,-138.23 -67.51,-278.22 -271.27,-282.17z"/>
   <path class="fil3" d="M4310.78 2647.61c539.1,-223.5 772.06,135.84 914.15,654 -144.79,46.74 -283.86,106.14 -415.88,177.01 -107.44,-140.94 -244.93,-382.26 -294.01,-497.12 46.65,-131.28 -6.12,-286.23 -204.26,-333.89z"/>
   <path class="fil3" d="M5006.1 2354.38c575.28,-102.52 725.19,299.63 752.31,837.23 -152.24,14.48 -300.57,42.4 -443.71,82.74 -74.8,-160.6 -157.59,-426.93 -180.88,-549.98 73.78,-118.18 55.55,-280.86 -127.72,-369.99z"/>
  </g>
  <path id="Lingkaran_x0020_Hitam_x0020_" class="fil4" d="M6000.13 3138.43c1415.62,0 2563.2,1147.58 2563.2,2563.2 0,1415.62 -1147.58,2563.2 -2563.2,2563.2 -1415.62,0 -2563.2,-1147.58 -2563.2,-2563.2 0,-1415.62 1147.58,-2563.2 2563.2,-2563.2z"/>
  <path id="Lingkaran_x0020_Putih_x0020_Luar" class="fil5" d="M6000.13 3111.97c350.7,0 685.19,69.75 990.3,196.13 316.96,131.29 602.16,323.65 840.87,562.36 238.71,238.71 431.07,523.91 562.36,840.87 126.38,305.11 196.13,639.6 196.13,990.3 0,350.7 -69.75,685.19 -196.13,990.3 -131.29,316.96 -323.65,602.16 -562.36,840.87 -238.71,238.71 -523.92,431.07 -840.87,562.36 -305.11,126.37 -639.59,196.13 -990.3,196.13 -350.71,0 -685.19,-69.76 -990.3,-196.13 -316.95,-131.29 -602.16,-323.65 -840.87,-562.36 -238.71,-238.71 -431.07,-523.92 -562.36,-840.87 -126.37,-305.11 -196.13,-639.59 -196.13,-990.3 0,-350.71 69.76,-685.19 196.13,-990.3 131.29,-316.95 323.65,-602.16 562.36,-840.87 238.71,-238.71 523.91,-431.07 840.87,-562.36 305.11,-126.38 639.6,-196.13 990.3,-196.13zm1793.75 795.91c-233.93,-233.93 -513.27,-422.37 -823.61,-550.91 -298.8,-123.77 -626.48,-192.08 -970.14,-192.08 -343.66,0 -671.34,68.31 -970.14,192.08 -310.34,128.54 -589.68,316.98 -823.61,550.91 -233.91,233.91 -422.36,513.28 -550.91,823.62 -123.77,298.8 -192.08,626.48 -192.08,970.13 0,343.65 68.31,671.33 192.08,970.13 128.55,310.34 317,589.71 550.91,823.62 233.91,233.91 513.28,422.36 823.62,550.91 298.8,123.77 626.48,192.08 970.13,192.08 343.65,0 671.33,-68.31 970.13,-192.08 310.34,-128.55 589.71,-317 823.62,-550.91 233.93,-233.93 422.37,-513.27 550.91,-823.61 123.77,-298.8 192.08,-626.48 192.08,-970.14 0,-343.66 -68.31,-671.34 -192.08,-970.14 -128.54,-310.34 -316.98,-589.68 -550.91,-823.61z"/>
  <circle id="Lingkaran_x0020_Dalam_x0020_Biru_x0020_Tua" class="fil6" cx="6000.12" cy="5701.63" r="1849.16"/>
  <g id="_60_x0020_Sinar">
   <circle id="Lingkaran_x0020_Patokan_x0020_60_x0020_Sinar" class="fil0" cx="6000.13" cy="5701.62" r="1783.89"/>
   <circle id="Lingkaran_x0020_Putih_x0020_Sinar" class="fil7" cx="6000.13" cy="5701.62" r="964.34"/>
   <g id="_6_x0020_Sinar_x0020_Ke-I">
    <polygon class="fil7" points="6294.05,4470.64 6232.28,4618.38 6170.51,4766.14 6227.08,4777.87 6283.64,4789.6 6288.85,4630.13 "/>
    <polygon class="fil7" points="6421.12,4508.11 6344.23,4648.58 6267.37,4789.08 6322.39,4806.65 6377.42,4824.23 6399.27,4666.18 "/>
    <polygon class="fil7" points="6543.57,4558.65 6452.42,4690.32 6361.29,4822.01 6414.18,4845.24 6467.06,4868.48 6505.32,4713.57 "/>
    <polygon class="fil7" points="6660.06,4621.72 6555.65,4743.14 6451.25,4864.58 6501.42,4893.22 6551.59,4921.85 6605.83,4771.79 "/>
    <polygon class="fil7" points="6163.77,4446.66 6117.78,4600.05 6071.8,4753.46 6129.27,4759.21 6186.75,4764.96 6175.27,4605.82 "/>
    <polygon class="fil7" points="6029.09,4107.28 6055.62,4438.7 6082.15,4770.13 6029.09,4770.13 5976.05,4770.13 6002.57,4438.7 "/>
   </g>
   <g id="_6_x0020_Sinar_x0020_Ke-II">
    <polygon class="fil7" points="6961.47,4878.5 6824.65,4961.72 6687.84,5044.96 6726.7,5087.69 6765.57,5130.43 6863.52,5004.48 "/>
    <polygon class="fil7" points="7042.25,4983.5 6897.48,5051.96 6752.71,5120.44 6786.89,5167 6821.08,5213.57 6931.66,5098.54 "/>
    <polygon class="fil7" points="7111.6,5096.37 6960.47,5149.32 6809.34,5202.29 6838.47,5252.17 6867.6,5302.05 6989.6,5199.22 "/>
    <polygon class="fil7" points="7168.78,5215.86 7012.94,5252.73 6857.1,5289.61 6880.86,5342.26 6904.61,5394.92 7036.69,5305.4 "/>
    <polygon class="fil7" points="6870.17,4782.53 6742.79,4879.59 6615.43,4976.67 6658.55,5015.11 6701.67,5053.55 6785.92,4918.05 "/>
    <polygon class="fil7" points="6960.69,4428.8 6787.35,4712.52 6614.01,4996.24 6571.08,4965.06 6528.16,4933.87 6744.43,4681.33 "/>
   </g>
   <g id="_6_x0020_Sinar_x0020_Ke-III">
    <polygon class="fil7" points="7261.69,5600.77 7102.09,5587.67 6942.47,5574.59 6948.8,5632.01 6955.12,5689.43 7108.4,5645.11 "/>
    <polygon class="fil7" points="7265.32,5733.19 7107.96,5703.48 6950.59,5673.79 6950.88,5731.56 6951.16,5789.32 7108.24,5761.27 "/>
    <polygon class="fil7" points="7255.09,5865.27 7101.7,5819.28 6948.29,5773.3 6942.54,5830.77 6936.79,5888.25 7095.93,5876.77 "/>
    <polygon class="fil7" points="7231.11,5995.55 7083.37,5933.78 6935.61,5872.01 6923.88,5928.58 6912.15,5985.14 7071.62,5990.35 "/>
    <polygon class="fil7" points="7244.24,5469.46 7084.14,5473.11 6924.03,5476.79 6936.32,5533.23 6948.61,5589.67 7096.42,5529.57 "/>
    <polygon class="fil7" points="7525.39,5236.5 7218.39,5364.14 6911.38,5491.79 6894.98,5441.33 6878.59,5390.87 7201.99,5313.68 "/>
   </g>
   <g id="_6_x0020_Sinar_x0020_Ke-IV">
    <polygon class="fil7" points="7080.03,6361.55 6958.61,6257.14 6837.17,6152.74 6808.53,6202.91 6779.9,6253.08 6929.96,6307.32 "/>
    <polygon class="fil7" points="7005.13,6470.82 6895.29,6354.29 6785.43,6237.77 6751.71,6284.67 6717.99,6331.57 6861.55,6401.2 "/>
    <polygon class="fil7" points="6919.22,6571.66 6822.16,6444.28 6725.08,6316.92 6686.64,6360.04 6648.2,6403.16 6783.7,6487.41 "/>
    <polygon class="fil7" points="6823.25,6662.96 6740.03,6526.14 6656.79,6389.33 6614.06,6428.19 6571.32,6467.06 6697.27,6565.01 "/>
    <polygon class="fil7" points="7143.1,6245.06 7011.43,6153.91 6879.74,6062.78 6856.51,6115.67 6833.27,6168.55 6988.18,6206.81 "/>
    <polygon class="fil7" points="7507.48,6221.85 7184.09,6144.66 6860.68,6067.48 6877.08,6017.01 6893.47,5966.56 7200.48,6094.2 "/>
   </g>
   <g id="_6_x0020_Sinar_x0020_Ke-V">
    <polygon class="fil7" points="6485.89,6870.27 6449.02,6714.43 6412.14,6558.59 6359.49,6582.35 6306.83,6606.1 6396.35,6738.18 "/>
    <polygon class="fil7" points="6361.07,6914.64 6340.7,6755.8 6320.3,6596.96 6265.46,6615.08 6210.61,6633.21 6285.83,6773.92 "/>
    <polygon class="fil7" points="6232.29,6945.73 6228.64,6785.63 6224.96,6625.52 6168.52,6637.81 6112.08,6650.1 6172.18,6797.91 "/>
    <polygon class="fil7" points="6100.98,6963.18 6114.08,6803.58 6127.15,6643.96 6069.74,6650.29 6012.32,6656.61 6056.64,6809.89 "/>
    <polygon class="fil7" points="6605.38,6813.09 6552.43,6661.96 6499.46,6510.83 6449.58,6539.96 6399.7,6569.09 6502.53,6691.09 "/>
    <polygon class="fil7" points="6913.82,7008.49 6697.55,6755.96 6481.28,6503.43 6524.21,6472.24 6567.13,6441.05 6740.48,6724.78 "/>
   </g>
   <g id="_6_x0020_Sinar_x0020_Ke-VI">
    <polygon class="fil7" points="5706.21,6932.6 5767.98,6784.86 5829.75,6637.1 5773.18,6625.37 5716.62,6613.64 5711.41,6773.11 "/>
    <polygon class="fil7" points="5579.14,6895.13 5656.03,6754.66 5732.89,6614.16 5677.87,6596.58 5622.84,6579.01 5600.99,6737.06 "/>
    <polygon class="fil7" points="5456.69,6844.59 5547.84,6712.92 5638.97,6581.23 5586.08,6558 5533.2,6534.76 5494.94,6689.67 "/>
    <polygon class="fil7" points="5340.2,6781.52 5444.61,6660.1 5549,6538.66 5498.84,6510.02 5448.67,6481.39 5394.43,6631.45 "/>
    <polygon class="fil7" points="5836.49,6956.58 5882.48,6803.19 5928.46,6649.78 5870.99,6644.03 5813.51,6638.28 5824.99,6797.42 "/>
    <polygon class="fil7" points="5971.16,7295.96 5944.64,6964.54 5918.11,6633.11 5971.16,6633.11 6024.21,6633.11 5997.69,6964.54 "/>
   </g>
   <g id="_6_x0020_Sinar_x0020_Ke-VII">
    <polygon class="fil7" points="5038.79,6524.74 5175.61,6441.52 5312.42,6358.28 5273.56,6315.55 5234.69,6272.81 5136.74,6398.76 "/>
    <polygon class="fil7" points="4958.01,6419.74 5102.78,6351.28 5247.55,6282.8 5213.37,6236.24 5179.18,6189.67 5068.6,6304.7 "/>
    <polygon class="fil7" points="4888.66,6306.87 5039.79,6253.92 5190.92,6200.95 5161.79,6151.07 5132.66,6101.19 5010.66,6204.02 "/>
    <polygon class="fil7" points="4831.48,6187.38 4987.32,6150.51 5143.16,6113.63 5119.4,6060.98 5095.65,6008.32 4963.57,6097.84 "/>
    <polygon class="fil7" points="5130.09,6620.71 5257.47,6523.65 5384.83,6426.57 5341.71,6388.13 5298.59,6349.69 5214.34,6485.19 "/>
    <polygon class="fil7" points="5039.57,6974.44 5212.91,6690.72 5386.25,6407 5429.18,6438.18 5472.1,6469.37 5255.83,6721.91 "/>
   </g>
   <g id="_6_x0020_Sinar_x0020_Ke-VIII">
    <polygon class="fil7" points="4738.57,5802.48 4898.17,5815.58 5057.78,5828.66 5051.46,5771.24 5045.14,5713.82 4891.86,5758.14 "/>
    <polygon class="fil7" points="4734.94,5670.06 4892.3,5699.76 5049.67,5729.46 5049.38,5671.69 5049.1,5613.93 4892.02,5641.98 "/>
    <polygon class="fil7" points="4745.17,5537.98 4898.56,5583.97 5051.97,5629.95 5057.72,5572.48 5063.47,5515 4904.33,5526.48 "/>
    <polygon class="fil7" points="4769.15,5407.7 4916.89,5469.47 5064.65,5531.24 5076.38,5474.67 5088.11,5418.11 4928.64,5412.9 "/>
    <polygon class="fil7" points="4756.02,5933.79 4916.12,5930.14 5076.23,5926.46 5063.94,5870.02 5051.64,5813.58 4903.84,5873.68 "/>
    <polygon class="fil7" points="4474.87,6166.74 4781.87,6039.1 5088.88,5911.46 5105.28,5961.92 5121.67,6012.37 4798.27,6089.56 "/>
   </g>
   <g id="_6_x0020_Sinar_x0020_Ke-IX">
    <polygon class="fil7" points="4920.23,5041.69 5041.65,5146.1 5163.09,5250.5 5191.72,5200.33 5220.36,5150.16 5070.3,5095.92 "/>
    <polygon class="fil7" points="4995.13,4932.42 5104.97,5048.95 5214.83,5165.47 5248.55,5118.57 5282.27,5071.67 5138.71,5002.04 "/>
    <polygon class="fil7" points="5081.04,4831.58 5178.1,4958.96 5275.18,5086.32 5313.62,5043.2 5352.06,5000.08 5216.56,4915.83 "/>
    <polygon class="fil7" points="5177.01,4740.28 5260.23,4877.1 5343.47,5013.91 5386.2,4975.05 5428.94,4936.18 5302.99,4838.23 "/>
    <polygon class="fil7" points="4857.16,5158.18 4988.83,5249.33 5120.52,5340.46 5143.75,5287.57 5166.99,5234.69 5012.08,5196.43 "/>
    <polygon class="fil7" points="4492.78,5181.39 4816.17,5258.58 5139.58,5335.76 5123.18,5386.23 5106.79,5436.69 4799.78,5309.04 "/>
   </g>
   <g id="_6_x0020_Sinar_x0020_Ke-X">
    <polygon class="fil7" points="5514.37,4532.97 5551.24,4688.81 5588.12,4844.65 5640.77,4820.89 5693.43,4797.14 5603.91,4665.06 "/>
    <polygon class="fil7" points="5639.19,4488.6 5659.56,4647.44 5679.96,4806.28 5734.8,4788.16 5789.65,4770.03 5714.43,4629.32 "/>
    <polygon class="fil7" points="5767.97,4457.51 5771.62,4617.61 5775.3,4777.72 5831.74,4765.43 5888.18,4753.13 5828.08,4605.33 "/>
    <polygon class="fil7" points="5899.28,4440.06 5886.18,4599.66 5873.1,4759.27 5930.52,4752.95 5987.94,4746.63 5943.62,4593.35 "/>
    <polygon class="fil7" points="5394.88,4590.15 5447.83,4741.28 5500.8,4892.41 5550.68,4863.28 5600.56,4834.15 5497.73,4712.15 "/>
    <polygon class="fil7" points="5086.44,4394.75 5302.71,4647.28 5518.98,4899.81 5476.05,4931 5433.13,4962.19 5259.78,4678.46 "/>
   </g>
  </g>
  <path id="Lingkaran_x0020_Putih_x0020_Dalam" class="fil8" d="M6000.13 3817.19c520.36,0 991.48,210.93 1332.49,551.95 341.02,341.01 551.95,812.13 551.95,1332.49 0,520.36 -210.93,991.48 -551.95,1332.49 -341.01,341.01 -812.13,551.95 -1332.49,551.95 -520.36,0 -991.48,-210.94 -1332.49,-551.95 -341.01,-341.01 -551.95,-812.13 -551.95,-1332.49 0,-520.36 210.94,-991.48 551.95,-1332.49 341.01,-341.02 812.13,-551.95 1332.49,-551.95zm1282.61 601.83c-328.24,-328.25 -781.72,-531.27 -1282.61,-531.27 -500.89,0 -954.37,203.02 -1282.61,531.27 -328.23,328.23 -531.27,781.72 -531.27,1282.61 0,500.89 203.04,954.38 531.27,1282.61 328.23,328.23 781.72,531.27 1282.61,531.27 500.89,0 954.38,-203.04 1282.61,-531.27 328.25,-328.24 531.27,-781.72 531.27,-1282.61 0,-500.89 -203.02,-954.37 -531.27,-1282.61z"/>
  <g id="_1156657584">
   <path id="Pita_x0020_Hitam" class="fil9" d="M2356.34 10176.67c-113.7,-41.71 -106.03,-70.22 -145.37,31.99 -88.89,231 -150.52,393.97 -184.39,484.2 -37.99,101.2 -51.8,75.33 45.22,112.18 2573.69,977.86 5260.13,986.44 7856.39,0 97.02,-36.85 83.21,-10.98 45.22,-112.18 -33.87,-90.23 -95.5,-253.2 -184.39,-484.2 -39.34,-102.21 -31.67,-73.7 -145.37,-31.99 -2327.91,837.77 -4959.63,837.7 -7287.31,0zm7014.35 19.66c-0.04,0.03 -13.02,-4.03 -15.72,-47.74l-0.72 -11.52 11.5 0.97c88.74,7.48 169.59,-4.61 169.81,-4.64l145.76 -24.3 -141.19 43.67 -52.92 16.63c-60.64,19.17 -103.42,32.7 -116.52,26.93zm-6725.67 -47.74c-2.7,43.71 -15.68,47.77 -15.7,47.78 -13.12,5.73 -55.9,-7.8 -116.54,-26.97l-52.92 -16.63 -141.19 -43.67 145.76 24.3c0.22,0.03 81.07,12.12 169.81,4.64l11.5 -0.97 -0.72 11.52zm-698.74 493.47c-617.74,-273.67 -990.74,-421.21 -1118.91,-442.68 159.94,-182.18 393.89,-142.76 543.18,-282.1 -64.41,-97.13 -158.63,-343.03 -173.43,-463.11 526.04,326.08 996.17,526.17 1410.39,600.34 55.87,34.5 -157.98,21.88 -239.27,-0.97 -133.31,-36.25 -185.71,-32.99 -226.78,64.79 0,0 -52.94,173.65 -195.18,523.73zm8107.43 0c617.74,-273.67 990.74,-421.21 1118.91,-442.68 -159.94,-182.18 -393.89,-142.76 -543.18,-282.1 64.41,-97.13 158.63,-343.03 173.43,-463.11 -526.04,326.08 -996.17,526.17 -1410.39,600.34 -55.87,34.5 157.98,21.88 239.27,-0.97 133.31,-36.25 185.71,-32.99 226.78,64.79 0,0 52.94,173.65 195.18,523.73z"/>
  </g>
  <path id="Ilmu_x0020_Alat_x0020_Pengabdian" class="fil10" d="M2509.63 10404.84l-121.67 317.83 67.65 25.89 121.66 -317.73 -67.64 -25.99zm176.73 70.07l-111.38 318.65 258.82 90.43 16.58 -47.33 -190.31 -66.53 94.77 -271.34 -68.48 -23.88zm341.79 115.5l-95.49 326.75 63.73 18.71 84.96 -289.83 -1.51 314.2 68.69 20 168.36 -265.48 -84.54 290.01 63.79 18.67 95.37 -326.91 -109.78 -31.98 -141.41 218.29 -2.53 -260.42 -109.64 -32.01zm542.08 152.44l-70.59 -16.78 -42.26 177.15c-2.1,8.95 -4.02,17.88 -5.74,26.68 -1.64,8.35 -3.01,16.21 -4.09,23.44 -1.06,7.29 -1.83,14.06 -2.27,20.24 -0.46,6.32 -0.62,11.89 -0.49,16.65l0 0.14c0.06,3.09 0.38,6.35 0.92,9.65 0.53,3.26 1.37,6.71 2.42,10.22 1.1,3.52 2.39,6.97 3.83,10.28 1.52,3.5 3.3,7.06 5.33,10.62l0.07 0.14c1.85,3.31 4.1,6.67 6.65,10.02 2.43,3.27 5.36,6.64 8.68,10.13 3.01,3.05 6.45,6.21 10.24,9.39 3.85,3.22 7.78,6.23 11.72,8.96 4.07,2.87 8.83,5.65 14.24,8.38 5.57,2.83 11.67,5.52 18.18,8.06 6.87,2.57 14.26,5.06 22.13,7.39 8.01,2.36 16.63,4.65 25.91,6.81 7.51,1.77 14.83,3.28 21.88,4.51 7.1,1.24 13.7,2.19 19.73,2.83 6.96,0.52 13.2,0.84 18.52,0.87 5.57,0.03 10.9,-0.17 15.89,-0.64 4.86,-0.58 9.66,-1.37 14.29,-2.35 4.98,-1.02 9.5,-2.22 13.6,-3.52 4.1,-1.33 8.03,-2.86 11.79,-4.6 3.71,-1.72 7.29,-3.69 10.61,-5.82l0.41 -0.28c3.53,-2.13 6.74,-4.39 9.51,-6.69 2.93,-2.43 5.71,-5.12 8.25,-7.98l0.21 -0.2c2.65,-2.89 5.18,-6.08 7.56,-9.48 2.26,-3.24 4.45,-6.86 6.52,-10.78 2.01,-4 4.16,-8.83 6.36,-14.45 2.08,-5.29 4.17,-11.24 6.17,-17.78 2.23,-7.21 4.55,-15.2 6.92,-23.98 2.61,-9.68 5,-18.97 7.08,-27.66l41.42 -174.53 -70.49 -16.71c-17.84,74.7 -33.22,157.33 -57,230.75 -1.43,4.07 -2.77,7.56 -3.97,10.39l-0.2 0.48c-1.43,3.1 -3.17,6 -5.17,8.65 -2.06,2.68 -4.27,5.08 -6.6,7.17l-0.27 0.21c-2.35,2.04 -5.03,4.05 -8.03,5.88 -2.98,1.82 -6.29,3.51 -9.87,4.91 -3.61,1.39 -7.55,2.45 -11.81,3.13 -4.2,0.66 -8.47,1 -12.75,1 -4.41,0 -9.38,-0.4 -14.89,-1.13 -5.02,-0.67 -10.31,-1.66 -15.83,-2.89l-0.28 0c-5.27,-1.25 -10.46,-2.76 -15.55,-4.54 -4.87,-1.69 -9.5,-3.67 -13.86,-5.93 -4.21,-2.08 -8.12,-4.49 -11.7,-7.13 -3.5,-2.6 -6.63,-5.41 -9.44,-8.47 -2.87,-2.94 -5.44,-6.12 -7.64,-9.49 -2.23,-3.34 -4.09,-7 -5.53,-10.82 -1.35,-3.38 -2.42,-6.83 -3.14,-10.32 -0.83,-3.95 -1.25,-7.88 -1.25,-11.77 0,-2.57 0.32,-5.97 0.92,-10.12 0.52,-3.6 1.26,-7.76 2.16,-12.43 14.87,-72.23 33.47,-144.12 50.59,-215.86zm646 484.46l76.51 14.13 -20.44 -79.82c-25.18,-98.59 -50.56,-197.63 -72.12,-283.45l-78.83 -14.52 -211.63 306.99 75.12 13.81 47.19 -72.02 164.48 30.35 19.72 84.53zm-58.81 -251.72l26.03 113.82 -121.48 -22.57 86.23 -131.6 9.22 40.35zm274.44 -52.67l-44.73 334.49 271.92 36.26 6.59 -49.67 -199.83 -26.65 38.03 -284.83 -71.98 -9.6zm603.35 413.52l77.48 8.29 -119.49 -355.36 -79.75 -8.62 -188.06 321.92 75.81 8.18 41.71 -75.4 166.31 18.1 25.99 82.89zm-77.52 -246.77l34.53 111.68 -122.84 -13.51 76.09 -137.73 12.22 39.56zm313.17 -8.41l-16.11 272.1 72.29 4.44 17.19 -289.77 118.34 6.93 3.03 -50.05 -309.63 -18.28 -2.94 50.02 118.87 7.05 -1.04 17.56zm396.52 -46.23l-4.85 340.43 72.67 0.97 1.77 -131.67 57.3 0.7c9.22,0.16 17.87,0.2 25.89,0.1 7.58,-0.09 14.99,-0.34 22.17,-0.74l0.27 0c6.97,-0.29 13.39,-0.71 19.12,-1.22 5.68,-0.5 10.89,-1.12 15.63,-1.84 3.36,-0.63 6.8,-1.44 10.24,-2.39 3.23,-0.89 6.74,-2.05 10.4,-3.38 3.56,-1.36 7.08,-2.86 10.36,-4.44 3.07,-1.44 6.37,-3.22 9.86,-5.29 3.26,-1.93 6.39,-4.06 9.34,-6.32 3.02,-2.24 6.07,-4.9 9.14,-7.81 2.55,-2.54 5.07,-5.38 7.52,-8.46 2.55,-3.16 4.92,-6.44 7.16,-9.86 2.2,-3.61 4.19,-7.39 5.79,-11.18 1.54,-3.69 2.89,-7.63 3.95,-11.8 1.19,-4.65 2.08,-9.29 2.65,-13.84 0.6,-4.72 0.95,-9.67 1.02,-14.75 0.07,-6.73 -0.33,-13.25 -1.2,-19.5 -0.83,-5.96 -2.14,-11.65 -3.89,-17.03l0 -0.13c-1.66,-5.23 -3.89,-10.3 -6.57,-15.11 -2.8,-4.94 -6.03,-9.54 -9.62,-13.74 -3.71,-4.24 -7.65,-8.17 -11.83,-11.75 -4.13,-3.55 -8.48,-6.73 -13.02,-9.5 -4.64,-2.77 -9.41,-5.17 -14.24,-7.14 -4.95,-2.01 -10.25,-3.74 -15.86,-5.17 -4.01,-0.94 -8.9,-1.82 -14.53,-2.54 -5.41,-0.69 -12.13,-1.33 -20.12,-1.84 -8.29,-0.5 -17.26,-0.91 -26.88,-1.21 -10.38,-0.32 -21.74,-0.57 -33.97,-0.72l-125.67 -1.83zm70.48 142.02l1.2 -91.07c26.55,0.63 53.61,1.87 80.06,1.87 4.65,0.22 8.93,0.52 12.74,0.88 3.85,0.36 6.98,0.76 9.33,1.18 3.35,0.48 6.75,1.3 10.06,2.33 3.56,1.13 6.78,2.42 9.56,3.8l0.27 0.21c2.78,1.45 5.52,3.14 8.05,4.95 2.6,1.79 5.05,3.85 7.2,6l0.07 0.14c2.23,2.28 4.3,4.81 6.04,7.48 1.77,2.72 3.26,5.63 4.35,8.64 1.08,2.86 1.89,5.87 2.4,9 0.55,3.21 0.8,6.39 0.8,9.51 0,2.67 -0.26,5.47 -0.74,8.23 -0.46,2.73 -1.21,5.48 -2.13,8.02l0 0.14c-0.82,2.23 -1.93,4.62 -3.36,7.17 -1.14,2.07 -2.59,4.2 -4.32,6.33 -1.69,2.22 -3.56,4.3 -5.58,6.15 -2.01,1.77 -4.14,3.44 -6.38,4.91 -2.25,1.59 -4.78,3.01 -7.43,4.26 -2.46,1.16 -5.19,2.24 -8.12,3.22 -3.18,1.07 -7.07,1.92 -11.63,2.57 -3.91,0.57 -8.54,1.02 -13.81,1.37 -4.9,0.38 -11.03,0.68 -18.34,0.86 -6.55,0.16 -13.8,0.2 -21.59,0.12 -16.24,0 -32.66,-0.51 -48.92,-0.77l0.22 -17.5zm334.11 -138.62l4.09 340.6 296.51 -3.75 -0.56 -50.17 -224.02 2.88 -1.22 -103.66 200.97 -2.36 -0.57 -50.19 -200.95 2.42 -1.07 -86.47 216.16 -2.57 -0.66 -50.03 -288.68 3.3zm396.81 -9.87l20.49 339.83 66.4 -4.11 -14.67 -238.7 184.04 228.42 74.38 -4.48 -20.64 -339.85 -66.2 3.99 14.79 243.26 -186.75 -232.68 -71.84 4.32zm630.48 112.65l5.58 49.79 92.13 -10.09 5.51 51.82c-6.98,4.84 -14.43,9.68 -21.2,14.72 -3.24,2.06 -6.97,4.22 -11.02,6.39 -3.77,2.04 -7.85,4.05 -12.19,6.01 -4.18,1.95 -8.27,3.69 -12.17,5.18 -4.03,1.53 -8.37,2.98 -12.85,4.3l-0.27 0.07c-4.03,1.12 -8.27,2.14 -12.66,3.02 -4.13,0.87 -8.48,1.56 -13.18,2.04 -8.64,0.9 -16.99,1.13 -24.97,0.67 -8.2,-0.46 -16.03,-1.62 -23.39,-3.45 -7.52,-1.77 -14.76,-4.4 -21.71,-7.82 -6.79,-3.36 -13.18,-7.42 -19.21,-12.13 -6.18,-4.9 -11.65,-10.49 -16.46,-16.72 -4.97,-6.54 -9.22,-13.5 -12.71,-20.82l-0.07 -0.21c-3.57,-7.71 -6.56,-16.28 -8.96,-25.67 -2.35,-9.17 -4.08,-18.85 -5.19,-29 -1.05,-9.68 -1.39,-18.89 -1.03,-27.6 0.36,-8.9 1.5,-17.28 3.35,-25.01 1.74,-7.66 4.37,-14.91 7.72,-21.69 3.42,-6.91 7.61,-13.3 12.46,-19.05l0.14 -0.14c4.82,-5.57 10.24,-10.66 16.27,-15.23 5.85,-4.49 12.28,-8.4 19.2,-11.73l0.14 -0.07c7.06,-3.33 14.66,-6.07 22.77,-8.21 7.89,-2.08 16.27,-3.61 25.08,-4.59 5.74,-0.68 11.51,-0.98 17.27,-0.96 5.87,0.02 11.17,0.37 15.98,0.95l0.48 0.07c4.95,0.73 9.94,1.87 14.84,3.35 4.6,1.32 9.2,3.14 13.73,5.37 4.13,1.93 8.2,4.4 12.13,7.24 3.98,2.86 7.57,5.99 10.65,9.19 3.18,3.19 6.1,6.73 8.65,10.46 1.95,2.87 3.71,5.83 5.26,8.85l70.52 -19.57c-2.37,-5.87 -5.13,-11.48 -8.27,-16.78 -3.82,-6.46 -8.24,-12.48 -13.23,-18.02 -4.76,-5.37 -10.28,-10.39 -16.42,-15.04 -6.28,-4.75 -13.06,-9.01 -20.24,-12.7 -7.12,-3.48 -15.02,-6.5 -23.68,-8.96 -8.43,-2.4 -17.44,-4.23 -26.96,-5.36 -9.97,-1.15 -20.39,-1.69 -31.16,-1.59 -10.77,0.09 -22.44,0.84 -34.91,2.24l-0.14 0c-9.14,0.93 -18.06,2.26 -26.71,3.91 -8.72,1.67 -16.9,3.65 -24.5,5.89 -7.29,2.09 -14.31,4.64 -21.07,7.53 -6.72,2.88 -13.29,6.22 -19.6,9.9 -7.84,4.51 -15.14,9.46 -21.87,14.73 -6.53,5.11 -12.65,10.67 -18.27,16.59 -5.73,6.09 -10.93,12.48 -15.5,19.11 -4.57,6.63 -8.63,13.57 -12.09,20.78 -3.54,7.61 -6.47,15.1 -8.73,22.48 -2.34,7.64 -4.16,15.57 -5.48,23.73 -1.24,8.45 -1.97,16.77 -2.13,24.94 -0.16,8.36 0.22,16.99 1.09,25.79 0.97,8.04 2.39,16.07 4.27,24.01 1.84,7.84 4.12,15.43 6.83,22.77 2.74,7.27 5.96,14.38 9.6,21.27 3.76,6.99 7.88,13.73 12.33,20.06 4.64,6.6 9.63,12.67 14.97,18.18 5.42,5.59 11.26,10.72 17.49,15.33l0.14 0.07c6.32,4.77 12.93,9 19.79,12.66 7.02,3.75 14.62,7.1 22.76,10.05 7.97,2.89 16.29,5.31 24.87,7.21 8.52,1.89 17.35,3.31 26.41,4.19 9.3,0.91 18.77,1.29 28.41,1.18 9.52,-0.11 19.52,-0.72 29.91,-1.81 7.89,-0.9 15.96,-2.17 24.14,-3.79 8.01,-1.59 15.98,-3.53 23.85,-5.78l0.2 0c7.39,-2.01 15.15,-4.53 23.2,-7.51 7.67,-2.84 15.34,-6.03 22.91,-9.55 7.78,-3.73 15.06,-7.42 21.6,-11 6.54,-3.59 12.64,-7.25 18.14,-10.97l0.13 -0.07c5.88,-3.88 11.11,-7.71 15.65,-11.44 4.08,-3.41 7.75,-6.74 10.96,-10.01l-14.52 -131.95 -164.79 18zm575.96 102.02l76.83 -12.16 -208.45 -311.66 -79.26 12.65 -96.82 360.2 75.18 -12.02 20.69 -83.89 165.18 -26.08 46.65 72.96zm-139.5 -217.68l62.65 98.83 -122.22 19.13 37.44 -152.86 22.13 34.9zm400.47 -174.72l-153.81 28.6 61.95 334.74 130.04 -24.02 61.45 -12.23 19.68 -4.3 14.46 -3.51c4.93,-1.43 9.77,-3.11 14.45,-4.96 4.88,-1.89 9.21,-3.82 13.05,-5.73 4.06,-2.18 7.87,-4.43 11.29,-6.77 3.51,-2.33 6.84,-4.91 10.01,-7.67 3.09,-2.83 5.97,-5.76 8.55,-8.78 2.5,-2.92 4.86,-6.07 7,-9.43l0.27 -0.41c2.32,-3.43 4.37,-6.91 6.11,-10.36 1.75,-3.48 3.34,-7.22 4.73,-11.17 1.27,-3.57 2.33,-7.42 3.18,-11.38 0.89,-4.16 1.5,-8.04 1.82,-11.57 0.24,-3.96 0.31,-7.83 0.14,-11.52 -0.17,-3.61 -0.61,-7.36 -1.36,-11.21l0 -0.21c-0.81,-4.53 -2.05,-9.07 -3.69,-13.51 -1.51,-4.22 -3.4,-8.17 -5.61,-11.84 -2.22,-3.72 -4.86,-7.32 -7.89,-10.72 -2.84,-3.26 -6.18,-6.35 -9.91,-9.22l-0.14 -0.07c-3.74,-2.94 -7.74,-5.56 -11.94,-7.82 -4.34,-2.34 -8.94,-4.37 -13.69,-6.04l-34.86 -10.7 19.86 -20.61c2.69,-2.79 5.1,-5.77 7.24,-8.89 2.3,-3.31 4.29,-6.67 6.03,-10.14 1.69,-3.61 3.11,-7.18 4.19,-10.63 1.2,-3.81 2.09,-7.49 2.67,-10.99 0.52,-3.8 0.75,-7.56 0.66,-11.21 -0.09,-3.58 -0.51,-7.25 -1.27,-10.99l-0.07 -0.34c-0.65,-3.49 -1.54,-6.94 -2.65,-10.23 -1.05,-3.13 -2.35,-6.19 -3.86,-9.11 -1.43,-2.87 -3.17,-5.65 -5.17,-8.39 -2.08,-2.83 -4.32,-5.46 -6.73,-7.93 -2.49,-2.48 -5.11,-4.86 -7.77,-7.01 -2.5,-2.03 -5.22,-4.01 -8.05,-5.82 -2.89,-1.89 -5.9,-3.62 -9.01,-5.16 -2.95,-1.46 -5.94,-2.75 -8.92,-3.79l-0.14 0c-3.36,-1.19 -6.74,-2.26 -10.07,-3.1 -3.14,-0.87 -6.48,-1.55 -10,-2.04l-0.35 -0.07c-3.27,-0.52 -6.77,-0.87 -10.43,-1.06 -3.85,-0.19 -7.65,-0.25 -11.43,-0.19 -3.75,0.16 -8.09,0.51 -12.9,0.99l-15.84 1.9 -41.27 6.62zm-60.56 134.24l-12.97 -70.58c39.31,-7.1 79.35,-15.68 118.94,-20.72 3.36,-0.28 6.76,-0.32 10.11,-0.16 3.32,0.16 6.32,0.53 8.98,1.03 2.78,0.48 5.55,1.28 8.18,2.29 2.77,1.05 5.27,2.36 7.46,3.8 2.33,1.48 4.53,3.26 6.47,5.23 2.14,2.19 3.92,4.59 5.31,7.12 1.24,2.07 2.34,4.25 3.2,6.52 0.97,2.55 1.76,5.38 2.28,8.44 0.53,2.9 0.79,5.69 0.79,8.3 0,2.81 -0.32,5.68 -0.97,8.53l-0.21 0.83c-0.64,2.33 -1.53,4.77 -2.74,7.25 -1.25,2.65 -2.85,5.24 -4.82,7.62 -1.83,2.24 -3.86,4.34 -6.08,6.25 -2.09,1.79 -4.56,3.57 -7.37,5.27l-0.21 0.14c-2.93,1.72 -6.03,3.31 -9.19,4.59 -3.05,1.2 -6.32,2.3 -9.74,3.18 -25.06,10.32 -85.9,17.14 -114.23,22.45l-3.19 -17.38zm27.57 149.32l-15.37 -83.71 68.88 -12.62c7.95,-1.51 16.07,-2.91 24.09,-4.16 8.54,-1.32 15.61,-2.29 21.26,-2.92 5.56,-0.65 10.67,-1.08 15.23,-1.3 4.94,-0.22 9.06,-0.15 12.33,0.16l0.28 0c2.81,0.31 5.74,0.83 8.63,1.53 2.68,0.65 5.32,1.47 7.81,2.47 2.66,1.02 5.1,2.2 7.27,3.48 2.3,1.36 4.51,2.96 6.55,4.73l0.62 0.55c1.66,1.58 3.35,3.35 4.91,5.29 1.5,1.89 2.91,3.89 4.06,5.96 1.37,2.36 2.53,4.97 3.45,7.75 0.82,2.47 1.47,5.2 1.95,8.11 0.52,3.03 0.84,6.06 0.92,8.92 0.08,3.3 -0.13,6.42 -0.66,9.3 -0.54,2.91 -1.41,5.76 -2.61,8.54 -1.17,2.81 -2.75,5.51 -4.72,8.08 -3.38,4.66 -7.5,8.75 -12.33,12.16 -4.6,3.25 -10.04,6 -16.25,8.16 -2.28,0.82 -5.15,1.71 -8.51,2.61 -40.63,9.82 -83.55,16.61 -124.61,24.26l-3.18 -17.35zm438.02 -373.34l-140 33.2 78.31 331.19 144.06 -34c7.15,-1.67 14.02,-3.46 20.52,-5.32 6.42,-1.84 12.42,-3.74 17.91,-5.68l0.14 0c5.28,-1.82 10.47,-3.84 15.52,-6 4.99,-2.18 9.38,-4.28 13.06,-6.27 4.87,-2.73 9.83,-5.77 14.89,-9.14 4.8,-3.18 9.12,-6.31 12.83,-9.36 3.85,-3.17 7.53,-6.54 10.94,-10.07 3.32,-3.42 6.25,-6.85 8.81,-10.34 3.38,-4.58 6.61,-9.65 9.64,-15.14 2.86,-5.18 5.4,-10.54 7.55,-16.01 2.29,-5.86 4.28,-11.92 5.91,-18.11 1.59,-6.03 2.88,-12.28 3.81,-18.69 0.73,-5.43 1.2,-11.09 1.37,-16.88 0.15,-5.48 0.04,-11.38 -0.39,-17.63l0 -0.14c-0.34,-5.77 -1.05,-12.02 -2.05,-18.58 -1.05,-6.81 -2.39,-13.68 -3.96,-20.47 -1.8,-7.62 -3.83,-14.89 -6,-21.81 -2.28,-7.15 -4.75,-14 -7.35,-20.45 -2.88,-6.84 -5.77,-12.96 -8.58,-18.22 -2.76,-5.16 -5.86,-10.21 -9.24,-15.08 -3.39,-4.81 -6.96,-9.42 -10.65,-13.69 -3.62,-4.2 -7.48,-8.2 -11.57,-11.93l-0.14 -0.13c-3.92,-3.64 -8.17,-7.13 -12.64,-10.37 -4.54,-3.3 -9.15,-6.27 -13.73,-8.8 -4.65,-2.65 -9.66,-5.05 -15.05,-7.23 -5.12,-2.08 -10.28,-3.82 -15.4,-5.17 -5.67,-1.41 -11.27,-2.51 -16.69,-3.25 -5.76,-0.77 -11.6,-1.25 -17.38,-1.39 -3.94,-0.06 -8.7,0.14 -14.2,0.59 -5.51,0.44 -11.3,1.12 -17.33,2 -6.34,0.95 -13.19,2.14 -20.47,3.55 -6.94,1.35 -14.45,2.96 -22.45,4.82zm-6.62 281.8l-51.26 -216.8c26.51,-5.88 54.11,-11.17 80.24,-17.82 5.22,-0.98 10.11,-1.79 14.49,-2.38 4.23,-0.58 7.97,-0.93 11.11,-1.05 3.85,-0.2 7.61,-0.17 11.17,0.04 3.88,0.23 7.65,0.67 11.15,1.24l0.2 0c3.29,0.58 6.68,1.47 10.03,2.55l0.14 0c3.25,1.07 6.53,2.42 9.71,3.95 3.01,1.43 5.99,3.15 9,5.2 2.92,2 5.8,4.31 8.55,6.95 2.75,2.52 5.28,5.15 7.55,7.86 2.37,2.9 4.6,5.91 6.63,8.98 2.42,3.42 4.76,7.38 6.9,11.68 2.1,4.33 4.12,8.96 5.93,13.74 1.88,4.98 3.78,10.62 5.58,16.76 1.69,5.7 3.3,11.79 4.73,18.07 1.72,7.38 3.11,13.77 4.04,18.99 1.05,6.16 1.89,12 2.41,17.51 0.53,5.24 0.85,10.4 0.9,15.39 0.07,5.04 -0.13,9.71 -0.57,13.87 -0.41,4.05 -1,7.87 -1.71,11.34 -0.83,4.04 -1.86,7.81 -2.98,11.14 -1.1,3.24 -2.37,6.26 -3.79,9.03l0 0.14c-1.51,2.91 -3.31,5.69 -5.41,8.31 -1.79,2.28 -3.75,4.47 -5.86,6.56 -2.05,2.01 -4.4,4.03 -7.02,6.02l-0.62 0.48c-2.38,1.65 -4.93,3.31 -7.6,4.91 -2.72,1.64 -5.64,3.24 -8.87,4.8 -2.51,1.21 -5.44,2.44 -8.68,3.64 -3.04,1.16 -6.58,2.36 -10.56,3.6 -30.33,8.38 -60.84,15.27 -91.46,22.52l-4.07 -17.22zm278.23 -351.28l95.2 326.94 69.71 -20.31 -95.22 -326.83 -69.69 20.2zm545.8 190.35l73.94 -23.82 -253.51 -276.21 -76.48 24.49c-10.75,101.12 -21.56,198.29 -32.35,295.39l-8.36 75.32 72.65 -23.24 7.56 -85.95 159.14 -51.27 57.41 65.29zm-171.24 -193.86l77.03 87.84 -117.78 37.74 13.49 -156.66 27.26 31.08zm213.2 -176.78l121.1 318.17 62.01 -23.72 -84.86 -223.58 243.52 163.26 69.67 -26.46 -121.07 -318.28 -61.99 23.58 86.71 227.84 -247.69 -166.41 -67.4 25.6z"/>
  <path id="sriwijaya" class="fil8" d="M3914.11 6664.27l-51.94 -79.85 -3.7 2.51c-10.3,6.97 -19.71,14.4 -28.17,22.21 -8.41,7.77 -15.81,15.84 -22.1,24.14 -6.45,8.5 -11.89,17.36 -16.28,26.51 -4.32,9.02 -7.66,18.45 -9.97,28.24 -2.33,9.88 -3.57,20.01 -3.68,30.36 -0.12,10.58 0.89,21.58 2.99,32.87 2.04,10.97 5.21,22.35 9.45,34.07 4.31,11.91 9.74,24.18 16.23,36.75 4.43,8.57 9,16.65 13.66,24.18 4.69,7.6 9.52,14.7 14.39,21.19 4.94,6.56 10.07,12.72 15.34,18.37 5.11,5.48 10.39,10.5 15.77,14.99 5.51,4.62 11.17,8.74 16.91,12.3 5.76,3.57 11.68,6.66 17.67,9.19 6.15,2.61 12.45,4.75 18.86,6.35 6.32,1.58 12.88,2.69 19.62,3.27 6.77,0.58 13.39,0.72 19.77,0.43 6.36,-0.3 12.7,-1.06 18.91,-2.24 6.32,-1.21 12.49,-2.87 18.43,-4.95 6.01,-2.09 11.92,-4.67 17.64,-7.65 6.36,-3.3 12.29,-6.79 17.74,-10.45 5.29,-3.55 10.34,-7.43 15.05,-11.57 4.75,-4.19 9.04,-8.53 12.77,-12.97 3.8,-4.56 7.21,-9.32 10.14,-14.21 2.86,-4.79 5.45,-9.87 7.72,-15.18 2.23,-5.22 4.12,-10.56 5.63,-15.97 1.48,-5.5 2.62,-11.12 3.37,-16.8 0.76,-5.77 1.19,-11.7 1.23,-17.68 0.04,-5.95 -0.24,-12.53 -0.88,-19.69 -0.63,-7.15 -1.63,-15.01 -2.97,-23.49 -1.28,-8.15 -2.95,-17.07 -4.96,-26.67 -1.97,-9.36 -4.33,-19.5 -7.04,-30.32 -2.55,-10.21 -4.76,-19.93 -6.61,-29.08 -1.83,-8.93 -3.21,-16.93 -4.12,-23.95 -0.83,-6.62 -1.32,-12.41 -1.42,-17.29 -0.1,-5.26 0.24,-9.69 1.02,-13.23 0.48,-2.27 1.2,-4.52 2.12,-6.67 0.89,-2.15 2.03,-4.16 3.34,-5.98 1.31,-1.78 2.82,-3.37 4.49,-4.76 1.67,-1.39 3.53,-2.6 5.55,-3.62 2.13,-1.09 4.27,-1.94 6.37,-2.51 2.29,-0.63 4.58,-0.93 6.75,-0.92 2.21,-0.03 4.52,0.29 6.9,0.89 2.15,0.51 4.36,1.36 6.57,2.44 3.81,1.87 7.52,4.21 11.06,6.98 3.53,2.76 6.93,5.93 10.13,9.45 3.27,3.61 6.53,7.82 9.68,12.51 3.09,4.6 6.06,9.64 8.84,15.01 2.74,5.32 5.06,10.43 6.9,15.25 1.88,4.91 3.33,9.67 4.3,14.16 0.92,4.24 1.47,8.39 1.61,12.36 0.15,4.15 -0.14,8.06 -0.84,11.59 -0.69,3.51 -1.89,7.09 -3.56,10.68 -1.58,3.45 -3.65,6.87 -6.11,10.23 -2.51,3.43 -5.59,6.92 -9.14,10.37 -3.44,3.33 -7.38,6.66 -11.74,9.92l-3.06 2.3 47.56 84.67 3.81 -2.14c9.23,-5.19 17.58,-10.89 24.97,-17.03 7.32,-6.09 13.88,-12.74 19.58,-19.92 5.71,-7.2 10.61,-14.95 14.63,-23.21 4.02,-8.26 7.2,-17.01 9.47,-26.2 2.3,-9.23 3.52,-18.87 3.63,-28.81 0.12,-10.09 -0.88,-20.63 -2.97,-31.58 -2.04,-10.68 -5.19,-21.8 -9.37,-33.25 -4.26,-11.64 -9.64,-23.73 -16.08,-36.17 -3.86,-7.49 -7.94,-14.65 -12.19,-21.44 -4.22,-6.75 -8.61,-13.09 -13.11,-18.97 -4.49,-5.86 -9.17,-11.34 -13.97,-16.38 -4.86,-5.1 -9.88,-9.79 -14.99,-14.03 -5.08,-4.17 -10.37,-7.95 -15.78,-11.3 -5.38,-3.32 -10.87,-6.2 -16.4,-8.59 -5.75,-2.44 -11.54,-4.46 -17.31,-5.95 -5.77,-1.5 -11.65,-2.56 -17.57,-3.13 -5.89,-0.54 -11.79,-0.68 -17.61,-0.44 -5.77,0.24 -11.47,0.89 -17,1.9 -5.61,1.06 -11.08,2.53 -16.32,4.33 -5.37,1.87 -10.7,4.17 -15.91,6.85 -8.03,4.15 -15.4,8.96 -22.02,14.36 -6.57,5.35 -12.46,11.35 -17.6,17.91 -5.2,6.56 -9.69,13.76 -13.47,21.56 -3.8,7.82 -6.89,16.28 -9.24,25.28 -1.66,6.36 -2.79,13.46 -3.34,21.26 -0.57,7.95 -0.56,16.62 0.04,25.93 0.59,9.18 1.75,19.02 3.43,29.42 1.69,10.41 3.99,21.75 6.88,33.93 5.12,22.4 11.97,48.15 15.31,71.07 0.52,3.8 0.88,7.41 1.06,10.75 0.17,3.43 0.18,6.63 0.01,9.54 -0.14,2.56 -0.46,5.04 -0.92,7.36 -0.45,2.45 -1.16,4.75 -2.02,6.78 -0.82,1.97 -1.83,3.82 -2.96,5.56 -1.1,1.68 -2.39,3.3 -3.81,4.79 -1.46,1.54 -3.12,3 -4.89,4.29 -1.67,1.23 -3.57,2.41 -5.63,3.48 -3.32,1.69 -6.7,2.99 -10.1,3.83 -3.5,0.88 -7.03,1.33 -10.56,1.33 -3.56,0 -7.4,-0.46 -11.44,-1.35 -3.86,-0.85 -7.8,-2.12 -11.72,-3.75 -4.09,-1.7 -8.07,-3.98 -11.89,-6.75 -3.81,-2.81 -7.47,-6.07 -10.93,-9.75 -3.68,-3.98 -7.27,-8.51 -10.69,-13.55 -3.35,-4.91 -6.63,-10.48 -9.8,-16.6 -2.96,-5.7 -5.42,-11.33 -7.35,-16.8 -1.96,-5.55 -3.41,-11.01 -4.31,-16.32 -0.88,-5.1 -1.27,-10.19 -1.16,-15.21 0.11,-5.11 0.74,-10.08 1.85,-14.82 1.1,-4.74 2.82,-9.52 5.09,-14.24 2.25,-4.67 5.02,-9.23 8.23,-13.61 3.39,-4.61 7.4,-9.23 11.98,-13.75 4.46,-4.42 9.52,-8.8 15.08,-13.06l3.19 -2.45zm531.53 305.67l-323.99 308.08 67.19 70.69 132.62 -126.13 9.35 9.85c3.58,3.77 6.73,7.22 9.38,10.28 2.63,2.98 5.2,6.14 7.69,9.42 2.22,2.93 4.06,5.53 5.48,7.76 1.68,2.66 3.02,5.06 3.96,7.12l0.04 0.11c0.95,2.11 1.78,4.34 2.42,6.57 0.61,2.19 1.13,4.53 1.51,6.91 0.42,2.46 0.7,5.07 0.83,7.73 0.13,2.7 0.14,5.51 0.02,8.39 -0.15,3.17 -0.59,7.11 -1.25,11.83 -0.61,4.3 -1.53,9.79 -2.74,16.42 -8.86,53.18 -24.43,111.36 -36.36,163.55l80.03 84.11 27.08 -105.3c2.46,-9.46 4.76,-18.59 6.88,-27.54 2,-8.49 3.71,-16.22 5.06,-23.1 1.44,-7.29 2.62,-13.96 3.47,-19.86 0.85,-5.88 1.44,-11.17 1.73,-15.79 0.3,-4.64 0.4,-9.36 0.3,-14.07 -0.1,-4.88 -0.42,-9.95 -0.92,-15.1l-1.7 -18.27 14.66 8.37c3.53,2.01 7.06,3.88 10.51,5.54 3.38,1.63 6.83,3.13 10.35,4.5 7.72,2.98 15.41,5.2 23.03,6.59 7.55,1.39 15.09,1.99 22.5,1.81 7.42,-0.19 14.76,-1.12 21.93,-2.75 7.23,-1.65 14.3,-4.01 21.1,-7.03 6.72,-3.01 13.37,-6.76 19.87,-11.22 6.5,-4.46 12.86,-9.64 18.98,-15.49 4.84,-4.59 9.25,-9.36 13.21,-14.25 4.03,-5 7.66,-10.16 10.81,-15.44 3.19,-5.35 5.99,-10.89 8.32,-16.53 2.32,-5.6 4.24,-11.42 5.72,-17.36 1.5,-6.06 2.54,-12.06 3.09,-17.94 0.54,-5.73 0.62,-11.51 0.24,-17.24 -0.41,-5.77 -1.32,-11.44 -2.68,-16.96 -1.36,-5.51 -3.25,-11.07 -5.62,-16.59 -2.24,-5.28 -5.27,-11.01 -9,-17.12 -3.85,-6.3 -8.45,-13 -13.74,-20.03 -4.94,-6.58 -10.84,-13.86 -17.63,-21.74 -6.67,-7.77 -14.13,-15.98 -22.28,-24.57l-131.45 -138.21zm-25.11 242.78l-42.12 -44.31 74.41 -70.72c23.57,25.01 68.81,66.01 87.41,94.19 1.91,2.83 3.57,5.64 4.9,8.34 1.41,2.87 2.55,5.74 3.35,8.55 0.76,2.57 1.28,5.24 1.55,7.89 0.27,2.73 0.28,5.46 0.04,8.11 -0.26,2.75 -0.81,5.42 -1.6,7.99 -0.79,2.6 -1.88,5.18 -3.18,7.71l-0.07 0.1c-1.42,2.67 -3.12,5.25 -5.02,7.67 -1.87,2.38 -4.1,4.79 -6.6,7.17 -2.17,2.06 -4.41,3.97 -6.66,5.64 -2.35,1.73 -4.71,3.26 -7.04,4.51 -2.21,1.21 -4.56,2.27 -6.97,3.12 -2.5,0.86 -4.92,1.48 -7.22,1.82 -2.42,0.35 -4.74,0.54 -6.89,0.54 -2.25,0 -4.59,-0.19 -6.95,-0.58 -2.29,-0.38 -4.63,-1 -6.92,-1.8 -2.32,-0.81 -4.62,-1.81 -6.83,-2.95l-0.14 -0.07c-2.47,-1.33 -5.58,-3.48 -9.23,-6.38 -3.23,-2.57 -7.21,-6.02 -11.9,-10.3 -5.21,-4.78 -10.7,-10.03 -16.29,-15.62 -5.95,-5.99 -12.66,-12.87 -20.03,-20.62zm488.3 162.02l-222.47 387.85 84.65 48.57 222.45 -387.86 -84.63 -48.56zm285.5 166.68l-21.78 458.77 100.23 28.65 166.92 -279.86 -6.65 325.64 97.68 27.89 226.43 -400.31 -94.38 -26.99 -141.11 262.67 10.04 -300.09 -107.95 -30.87 -152.01 254.82 19.04 -292.8 -96.46 -27.52zm774.75 146.61l10.14 447.04 97.56 -2.21 -10.15 -447.03 -97.55 2.2zm635.65 -89.59l-95.08 21.95 64.69 280.39c1.92,8.32 3.48,16.13 4.64,23.36 1.16,7.26 1.91,13.83 2.2,19.62 0.27,5.28 0.23,9.97 -0.15,14.06 -0.42,4.48 -1.27,8.29 -2.53,11.36 -1.15,2.81 -2.76,5.46 -4.76,7.87 -1.91,2.31 -4.22,4.42 -6.88,6.26 -2.87,2.02 -6.23,3.85 -9.97,5.36 -3.5,1.43 -7.51,2.67 -11.94,3.69 -4.19,0.96 -8.28,1.46 -12.2,1.47 -4.06,0.02 -7.94,-0.47 -11.57,-1.47 -3.58,-0.98 -7.08,-2.53 -10.37,-4.58 -3.18,-1.96 -6.24,-4.48 -9.14,-7.48 -2.03,-2.09 -4.05,-4.68 -5.93,-7.7 -1.82,-2.93 -3.59,-6.23 -5.2,-9.78 -1.79,-4 -3.59,-8.52 -5.3,-13.45 -1.74,-5.05 -3.41,-10.5 -5,-16.28l-1.29 -4.61 -87.66 31.3 0.91 3.82c2.73,11.6 6.05,22.37 9.92,32.26 3.84,9.84 8.28,18.92 13.27,27.2 4.96,8.23 10.59,15.63 16.8,22.17 6.16,6.48 12.93,12.13 20.22,16.87 7.33,4.78 15.11,8.66 23.28,11.58 8.16,2.93 16.87,4.96 26.02,6.06 8.98,1.07 18.44,1.27 28.28,0.59 9.98,-0.69 20.4,-2.29 31.17,-4.76 9.03,-2.06 17.64,-4.58 25.78,-7.49 8.04,-2.87 15.62,-6.18 22.64,-9.83 7.08,-3.66 13.61,-7.76 19.54,-12.22 5.81,-4.37 11.15,-9.2 15.92,-14.41 4.74,-5.15 9.01,-10.62 12.79,-16.32 3.77,-5.68 7.02,-11.56 9.71,-17.57 2.71,-6.06 4.93,-12.38 6.63,-18.91 1.7,-6.54 2.91,-13.31 3.58,-20.23 0.46,-5.18 0.62,-10.91 0.46,-17.08 -0.15,-6.18 -0.65,-12.93 -1.46,-20.18 -0.79,-7.18 -1.91,-14.73 -3.31,-22.55 -1.4,-7.82 -3.19,-16.32 -5.27,-25.38l-63.44 -274.96zm727.35 140.81l91.28 -52.18 -186.11 -147.28c-63.83,-50.58 -127.63,-101.26 -191.3,-152l-86.6 49.5c23.74,155.97 47.39,314.83 71.02,473.47l0.13 0.87 89.73 -51.29 -17.88 -104.7 147.38 -84.22 82.35 67.83zm-252.42 -207.65l101.03 83.82 -93.29 53.35 -26.06 -152.37 18.32 15.2zm510.07 -242.46l133.98 127.44 67.26 -70.64 -135.5 -128.88 -75.22 -298.36 -77.42 81.4 54.82 188.02 -192.38 -43.44 -78.76 82.8 301.34 59.87 1.88 1.79zm619.14 -559.58l48.18 -93.44 -134.04 -12.66c-115.18,-10.84 -230.4,-21.73 -345.52,-32.91l-45.64 88.62 317.93 359.14 47.35 -91.92 -71.99 -78.03 77.73 -150.85 106 12.05zm-324.82 -36.76l130.47 15.29 -49.25 95.54 -104.83 -113.6 23.61 2.77z"/>
  <path id="universitas" class="fil8" d="M3632.09 5266.09l-26.95 119.81 240.53 54.04c12.51,2.81 24.23,5.22 35.03,7.18 11.17,2.03 21.41,3.65 30.72,4.84 9.61,1.22 18.71,2.08 27.25,2.54 8.18,0.45 15.66,0.51 22.33,0.21 4.65,-0.25 9.53,-0.87 14.55,-1.85 4.93,-0.94 9.83,-2.25 14.68,-3.9 4.96,-1.69 9.8,-3.66 14.41,-5.86 4.77,-2.28 9.74,-5 14.82,-8.1 5.12,-3.19 9.99,-6.62 14.48,-10.26 4.9,-4.03 9.55,-8.28 13.88,-12.74 4.61,-4.74 8.99,-9.72 13.06,-14.86 4.14,-5.22 8.24,-10.94 12.25,-17.09 4.05,-6.27 7.88,-13.13 11.44,-20.59 3.7,-7.75 7.35,-16.54 10.89,-26.28 3.28,-9.07 6.54,-19.29 9.74,-30.6 3.21,-11.36 6.2,-23.2 8.94,-35.44 2.35,-10.54 4.33,-20.65 5.91,-30.34 1.59,-9.82 2.78,-19.04 3.54,-27.57 0.75,-8.49 1.13,-17.12 1.13,-25.77 0,-8.18 -0.38,-15.71 -1.13,-22.52 -0.8,-7.33 -1.88,-14.25 -3.19,-20.69 -1.28,-6.27 -2.92,-12.56 -4.87,-18.76 -1.88,-6.13 -4.05,-11.88 -6.45,-17.24 -2.4,-5.37 -5.23,-10.71 -8.35,-15.87 -2.96,-4.89 -6.29,-9.56 -9.89,-13.95 -3.52,-4.28 -7.48,-8.45 -11.82,-12.46 -4.01,-3.69 -8.49,-7.25 -13.35,-10.63 -4.98,-3.47 -10.19,-6.65 -15.55,-9.48 -5.36,-2.75 -11.45,-5.46 -18.19,-8.04 -7.18,-2.76 -15.74,-5.67 -25.57,-8.7 -9.45,-2.9 -19.62,-5.78 -30.42,-8.56 -11.22,-2.88 -23.55,-5.85 -36.99,-8.86l-236.88 -53.23 -26.87 119.84 248.98 55.98c9.21,2.07 17.16,3.95 23.68,5.59 6.63,1.66 13.36,3.5 20.11,5.45 5.83,1.68 10.92,3.31 15.27,4.83 4.93,1.73 9.27,3.45 12.93,5.08 3.08,1.36 6.01,3.09 8.76,5.11 2.74,2.01 5.28,4.29 7.54,6.77l0.21 0.2c2.25,2.56 4.46,5.71 6.55,9.35 1.94,3.37 3.67,6.95 5.12,10.64 1.6,4.2 2.84,8.77 3.64,13.66 0.77,4.82 1.18,9.74 1.18,14.69 0,5.37 -0.45,11.56 -1.32,18.49 -0.81,6.45 -2.01,13.22 -3.57,20.18 -1.56,6.97 -3.37,13.51 -5.37,19.5 -2.11,6.33 -4.48,12.18 -7.05,17.47 -2.5,5.13 -5.14,9.74 -7.9,13.78 -3.09,4.5 -6.36,8.45 -9.74,11.79 -3.37,3.28 -6.79,6.17 -10.22,8.58 -3.82,2.62 -7.62,4.77 -11.43,6.39 -3.88,1.67 -7.79,2.98 -11.62,3.85 -3.95,0.9 -8.15,1.44 -12.49,1.55l-0.69 0c-3.21,-0.05 -6.91,-0.34 -10.98,-0.83 -3.61,-0.44 -8.47,-1.17 -14.57,-2.19 -5.79,-0.97 -12.86,-2.32 -21.08,-3.98l-25.08 -5.38 -243.97 -54.77zm188.1 -610.42l402.22 228.25 56.59 -99.65 -244.55 -138.74 347.33 -42.4 58.9 -103.84 -402.19 -228.25 -56.6 99.72 249.46 141.54 -353.89 42.49 -57.27 100.88zm410.75 -603.85l336.92 316.73 84.22 -89.52 -337 -316.75 -84.14 89.54zm242.95 -249l419.56 278.12 105.95 -69.35 -87.81 -495.18 -109.59 71.7 69.46 337.99 -286.36 -196.05 -111.21 72.77zm675.44 -384.63l130.66 443.54 406.11 -119.65 -25.31 -85.82 -288.24 84.93 -30.53 -103.54 258.68 -76.25 -25.26 -85.82 -258.7 76.22 -24.31 -82.51 278.17 -81.98 -25.31 -85.82 -395.96 116.7zm703.54 -150.7l-4.17 462.42 122.9 1.1 1.66 -187.45 17.62 0.23c5.88,0.07 11.14,0.23 15.65,0.46 4.76,0.24 9.44,0.59 13.97,1.03 4.43,0.42 8.16,0.9 11.15,1.42 3.66,0.63 7.01,1.42 9.97,2.29 2.59,0.76 5.24,1.76 7.93,2.93 2.73,1.21 5.25,2.47 7.45,3.75 2.52,1.5 5.04,3.17 7.58,5.02 2.52,1.84 4.94,3.77 7.15,5.73 2.52,2.19 5.62,5.3 9.3,9.27 3.23,3.48 7.23,7.99 11.93,13.45 4.87,5.67 10.39,12.26 16.64,19.92l18.27 22.76 79.25 101.33 147.08 1.28 -73.06 -99.09c-6.69,-9.16 -12.74,-17.28 -18.16,-24.3 -5.97,-7.73 -11.52,-14.69 -16.56,-20.75 -5.39,-6.43 -10.35,-12.12 -14.85,-16.95 -4.55,-4.9 -8.72,-9.08 -12.44,-12.46l-32.69 -28.07 34.95 -12.74c9.4,-3.61 18.06,-7.76 25.92,-12.43 7.79,-4.62 14.79,-9.76 20.93,-15.32 6.2,-5.62 11.77,-11.82 16.64,-18.54 4.79,-6.6 8.79,-13.59 11.96,-20.87 3.18,-7.3 5.62,-15.02 7.23,-23.03 1.66,-8.19 2.54,-16.77 2.6,-25.64 0.04,-6.95 -0.46,-13.94 -1.48,-20.86 -0.97,-6.56 -2.47,-12.91 -4.46,-18.99 -2,-6.28 -4.53,-12.29 -7.54,-18.07 -3.06,-5.86 -6.73,-11.66 -10.95,-17.33 -3.97,-5.32 -8.42,-10.35 -13.27,-15.07 -4.91,-4.77 -10.05,-9.06 -15.34,-12.83 -5.35,-3.66 -11.15,-7.04 -17.34,-10.05 -6.3,-3.06 -12.89,-5.72 -19.74,-7.93 -6.74,-2.08 -14.37,-3.97 -22.86,-5.56 -8.85,-1.66 -18.65,-3.08 -29.33,-4.18 -10.45,-1.1 -21.96,-1.97 -34.42,-2.58 -12.94,-0.64 -26.61,-1.04 -40.91,-1.17l-236.16 -2.13zm194.89 191.66l-73.78 -0.63 0.97 -100.49c47.94,0.6 110.33,-3.2 157.27,3.06 3.77,0.58 7.44,1.37 10.9,2.3 3.46,0.92 6.82,2.09 10.1,3.52 2.88,1.26 5.58,2.72 8.02,4.31 2.68,1.75 5.14,3.71 7.25,5.76l0.13 0.14c2.05,2.03 3.82,4.18 5.29,6.4 1.53,2.32 2.8,4.8 3.8,7.4 1.03,2.63 1.84,5.63 2.36,8.86 0.51,3.04 0.77,6.08 0.77,9.01l-0.07 0.14c-0.03,3.07 -0.25,5.82 -0.6,8.15l-0.07 0.14c-0.42,2.7 -1.07,5.37 -1.92,7.94 -0.86,2.58 -1.86,4.84 -2.94,6.81 -1.16,2.11 -2.54,4.18 -4.02,6.07l-0.34 0.34c-1.7,2.05 -3.56,3.95 -5.53,5.58 -1.77,1.47 -3.83,2.91 -6.14,4.25 -2.45,1.47 -4.98,2.78 -7.45,3.82 -2.72,1.08 -5.45,2.02 -8.1,2.72 -3.32,0.88 -8.03,1.66 -13.99,2.28 -5.1,0.53 -11.46,1 -19.02,1.33 -7.91,0.36 -17.35,0.62 -28.21,0.75 -10.41,0.13 -22.01,0.14 -34.68,0.04zm559.65 191.53l-116.68 -27.13 -1.21 7.16c-2.22,13.13 -3.3,25.76 -3.2,37.78 0.08,11.76 1.32,23.22 3.69,34.36 2.33,11.18 5.87,21.96 10.55,32.31 4.7,10.37 10.55,20.26 17.48,29.59 6.92,9.38 15.04,18.23 24.27,26.48 9.42,8.42 20.1,16.35 31.95,23.7 11.58,7.18 24.46,13.94 38.58,20.24 14.2,6.33 29.58,12.18 46.1,17.47 11.01,3.54 22.04,6.73 33.03,9.5 10.59,2.67 20.8,4.86 30.53,6.54 9.82,1.69 19.46,2.93 28.81,3.69 9.53,0.76 18.45,1.05 26.65,0.85 8.35,-0.16 16.65,-0.89 24.84,-2.12 8.01,-1.18 15.65,-2.9 22.91,-5.07 7.59,-2.26 14.73,-4.99 21.34,-8.15 6.55,-3.13 13,-6.89 19.24,-11.23 6.15,-4.28 11.8,-8.85 16.87,-13.64 5.04,-4.7 9.61,-9.76 13.66,-15.09 4.22,-5.56 7.87,-11.24 10.89,-17.03 3.09,-5.9 5.7,-12.19 7.81,-18.79 2.19,-6.81 3.91,-13.82 5.16,-20.95 1.21,-6.91 1.89,-13.51 1.99,-19.7 0.11,-6.48 -0.33,-13.09 -1.32,-19.69 -0.96,-6.36 -2.45,-12.56 -4.45,-18.46 -1.98,-5.93 -4.44,-11.74 -7.31,-17.44 -2.91,-5.74 -6.25,-11.35 -9.98,-16.74 -3.57,-5.16 -7.69,-10.34 -12.31,-15.48 -4.71,-5.25 -9.73,-10.25 -15,-14.92 -5.11,-4.52 -11.37,-9.54 -18.72,-15.02 -7.04,-5.26 -14.84,-10.69 -23.32,-16.25l-12.35 -7.95 -26.65 -15.92 -21.82 -12.3c-11.71,-6.47 -22.21,-12.52 -31.41,-18.08 -9.09,-5.5 -17.37,-10.85 -24.76,-15.97 -6.6,-4.54 -12.01,-8.59 -16.2,-12.08 -4.95,-4.19 -8.76,-7.99 -11.3,-11.32 -1.46,-1.92 -2.7,-3.82 -3.72,-5.72l-0.07 -0.14c-1.32,-2.5 -2.27,-5.01 -2.78,-7.38l-0.45 -2.07 0.4 -8.99 5.35 -9.09 2.23 -1.9c1.75,-1.49 4.03,-2.9 6.69,-4.06 1.72,-0.82 3.84,-1.54 6.24,-2.16l0.28 -0.07c4.76,-1.15 9.86,-1.87 15.21,-2.14 5.02,-0.25 10.48,-0.12 16.28,0.41 6.47,0.6 12.89,1.62 19.21,3.01 6.12,1.35 13.01,3.26 20.58,5.67 7.12,2.27 13.49,4.63 19.05,7 5.93,2.52 11.41,5.27 16.39,8.18 4.5,2.63 8.53,5.41 12.03,8.26 3.87,3.16 7.17,6.43 9.8,9.75 2.51,3.17 4.71,6.68 6.49,10.46 1.74,3.77 3.11,7.67 4.04,11.71l0 0.14c0.97,4.42 1.56,9.2 1.72,14.25 0.14,4.92 -0.07,9.94 -0.65,15.07l-0.66 5.7 117.11 33.97 1.84 -6.66c2.92,-10.59 4.66,-21.02 5.21,-31.24 0.53,-10.12 -0.09,-20.09 -1.88,-29.83 -1.77,-9.64 -4.75,-19.19 -8.89,-28.57 -4.16,-9.41 -9.54,-18.66 -16.08,-27.67 -6.33,-8.74 -13.97,-17.12 -22.84,-25.04 -9.03,-8.14 -19.43,-15.83 -31.1,-23.04 -11.34,-6.9 -23.88,-13.43 -37.6,-19.49 -14.1,-6.23 -29.28,-11.98 -45.44,-17.16 -9.77,-3.13 -19.57,-5.92 -29.26,-8.31 -9.56,-2.36 -18.81,-4.3 -27.62,-5.76 -8.82,-1.44 -17.62,-2.47 -26.28,-3.09 -8.7,-0.62 -16.96,-0.81 -24.65,-0.58 -7.83,0.26 -15.67,0.99 -23.44,2.17 -7.44,1.13 -14.46,2.67 -20.98,4.6 -6.74,1.94 -13.28,4.42 -19.62,7.36 -6.4,3.01 -12.25,6.3 -17.47,9.84 -5.49,3.79 -10.62,7.87 -15.28,12.22 -4.55,4.24 -8.68,8.75 -12.29,13.45 -3.83,4.94 -7.11,10.04 -9.86,15.29 -2.77,5.29 -5.12,10.91 -7,16.78 -2.88,9.01 -4.65,18.11 -5.24,27.2 -0.59,8.98 -0.04,17.98 1.66,26.94 1.69,8.84 4.49,17.63 8.36,26.31 3.97,8.92 9.16,17.91 15.51,26.91 4.35,6.17 9.78,12.49 16.22,18.9 6.77,6.76 14.65,13.65 23.56,20.6 8.79,6.77 18.48,13.63 29.03,20.47 10.92,7.1 23.04,14.42 36.26,21.94 25.76,14.88 50.63,29.75 76.1,44.88 3.26,2.2 6.7,4.73 10.19,7.49 3.39,2.67 6.32,5.23 8.75,7.59 2.01,1.96 3.87,3.98 5.49,5.95 1.87,2.19 3.39,4.51 4.58,6.89 0.92,1.79 1.69,3.69 2.26,5.64 0.61,2.17 1.04,4.35 1.16,6.5 0.11,1.81 0.04,3.79 -0.22,5.85 -0.16,1.69 -0.62,3.64 -1.27,5.79l-0.07 0.21c-1.04,3.29 -2.57,6.41 -4.49,9.26 -1.91,2.88 -4.24,5.49 -6.85,7.72 -3,2.59 -6.53,4.91 -10.47,6.9 -3.42,1.78 -7.52,3.38 -12.18,4.8 -4.94,1.5 -10.23,2.48 -15.8,2.9 -5.37,0.4 -11.18,0.36 -17.34,-0.12 -6.51,-0.53 -13.48,-1.6 -20.8,-3.17 -6.85,-1.46 -14.45,-3.55 -22.76,-6.2 -7.77,-2.47 -14.77,-5.12 -20.9,-7.89 -6.45,-2.9 -12.56,-6.22 -18.28,-9.87 -5.43,-3.47 -10.3,-7.14 -14.49,-10.95 -4.46,-4.1 -8.34,-8.35 -11.54,-12.73 -3.28,-4.37 -6.12,-9.19 -8.46,-14.34 -2.24,-4.96 -4.03,-10.28 -5.3,-15.86 -1.32,-5.78 -2.13,-12.02 -2.43,-18.66 -0.28,-6.33 -0.07,-13.09 0.59,-20.17l0.57 -5.96zm641.24 -35.81l-244.6 392.43 104.31 65.02 244.65 -392.49 -104.36 -64.96zm330.24 384.74l-243.45 258.88 89.45 84.15 255.53 -271.67 115.73 108.8 61.35 -65.16 -321.62 -302.43 -61.33 65.21 116.4 109.4 -12.06 12.82zm188.86 848.51l64.37 116.14 61.05 -86.09c77.27,-108.93 154.6,-217.97 235.52,-332.81l-60.08 -108.38 -509.1 35.46 63.34 114.3 111.13 -10.3 100.52 181.45 -66.75 90.23zm194.68 -263.59l-69.79 93.56 -61.4 -110.83 154.84 -14.43 -23.65 31.7zm95.1 559.56l-28.7 -116.31 -6.89 2.16c-12.58,3.92 -24.28,8.69 -35.01,14.25 -10.58,5.47 -20.31,11.77 -29.1,18.85 -8.87,7.15 -16.87,15.19 -23.93,24.03 -7.09,8.9 -13.26,18.63 -18.45,29.12 -5.24,10.59 -9.47,21.87 -12.65,33.82 -3.22,12.09 -5.45,25.14 -6.62,39.01 -1.17,13.71 -1.37,28.11 -0.6,43.18 0.81,15.6 2.61,32.08 5.38,49.34 1.87,11.6 4.05,22.83 6.5,33.62 2.45,10.84 5.14,20.96 8,30.34 2.93,9.45 6.22,18.67 9.84,27.54 3.4,8.4 7.17,16.38 11.22,23.9 3.97,7.5 8.39,14.58 13.14,21.24 4.64,6.49 9.64,12.56 14.93,18.11 5.33,5.58 11.01,10.69 17.01,15.27 6.04,4.62 12.31,8.68 18.73,12.11 6.61,3.54 13.29,6.51 19.97,8.91 6.77,2.35 13.31,4.16 19.56,5.29 6.67,1.2 13.37,1.85 20.01,1.91 6.65,0.06 13.39,-0.44 20.12,-1.51 7.43,-1.18 14.47,-2.78 21.05,-4.78 6.58,-2 12.83,-4.42 18.72,-7.24 6.04,-3.01 11.65,-6.34 16.68,-9.96 5.11,-3.69 9.98,-7.89 14.53,-12.54 4.43,-4.5 8.53,-9.34 12.3,-14.49 3.76,-5.12 7.23,-10.62 10.36,-16.42 3.1,-5.76 5.89,-11.81 8.3,-18.06 2.45,-6.37 4.61,-13.08 6.42,-20.07 1.7,-6.56 3.35,-14.38 4.88,-23.37 1.48,-8.66 2.79,-18.02 3.87,-28.02 1.52,-15.46 2.6,-30.26 3.63,-45.82l1.09 -24.95c0.49,-13.88 1.13,-25.94 1.89,-36.17 0.79,-10.75 1.79,-20.58 2.97,-29.42 1.08,-8 2.23,-14.67 3.44,-19.95 1.41,-6.18 3.07,-11.21 4.94,-15.05 0.89,-1.93 2.01,-3.88 3.3,-5.78 1.5,-2.24 3.28,-4.22 5.28,-5.89l1.67 -1.39 8.47 -4.2 10.7 0.98 2.18 0.85c2.37,0.93 4.78,2.4 7.04,4.28 1.57,1.28 3.17,2.91 4.74,4.74 3.21,3.74 6.17,7.94 8.86,12.59 2.57,4.44 4.96,9.4 7.12,14.79l0.07 0.14c2.17,5.5 4.17,11.72 5.94,18.54 1.65,6.35 3.09,13.33 4.27,20.83 1.17,7.21 1.96,13.93 2.36,20.09 0.41,6.41 0.45,12.5 0.12,18.19 -0.29,5.29 -0.94,10.14 -1.86,14.49 -1.05,4.89 -2.5,9.34 -4.27,13.28l-0.07 0.13c-1.72,3.7 -3.88,7.23 -6.42,10.47 -2.48,3.08 -5.33,6.03 -8.53,8.69 -3.49,2.97 -7.53,5.71 -11.96,8.16 -4.17,2.3 -8.81,4.42 -13.83,6.28l-5.38 1.99 22.89 119.77 6.88 -1.4c10.59,-2.15 20.68,-5.36 30.16,-9.56 9.22,-4.08 17.8,-9.17 25.68,-15.21 7.93,-6.04 15.11,-13.01 21.49,-20.85 6.48,-7.96 12.26,-16.93 17.28,-26.87 5,-9.71 9.03,-20.37 12.11,-31.98 3.09,-11.62 5.2,-24.23 6.29,-37.77 1.05,-13.24 1.17,-27.35 0.36,-42.24 -0.82,-15.3 -2.63,-31.47 -5.35,-48.47 -1.61,-10.21 -3.57,-20.22 -5.8,-29.94 -2.16,-9.36 -4.64,-18.44 -7.4,-27.17 -2.86,-9.03 -5.89,-17.31 -9.04,-24.77 -3.2,-7.56 -6.82,-15.03 -10.83,-22.31 -3.71,-6.85 -7.85,-13.43 -12.37,-19.73 -4.29,-6.08 -8.88,-11.68 -13.71,-16.82 -4.79,-5.08 -9.97,-9.8 -15.49,-14.1 -5.5,-4.27 -11.11,-7.99 -16.78,-11.08 -5.82,-3.17 -11.82,-5.89 -17.93,-8.13 -5.8,-2.13 -11.66,-3.76 -17.48,-4.86 -6.07,-1.14 -12.11,-1.76 -18.02,-1.83 -5.98,-0.06 -12.06,0.39 -18.14,1.36 -9.33,1.53 -18.24,4.11 -26.63,7.71 -8.34,3.58 -16.11,8.15 -23.24,13.67 -7.09,5.5 -13.69,12.02 -19.76,19.5 -6.13,7.55 -11.78,16.2 -16.89,25.9 -3.52,6.65 -6.71,14.4 -9.54,23.2 -2.85,8.84 -5.37,18.91 -7.51,30.15 -2.07,10.82 -3.81,22.66 -5.17,35.42 -1.39,13.05 -2.44,27.08 -3.1,42 0,26.53 -2.85,60.91 -5.62,88.25 -0.55,4.54 -1.23,8.76 -1.97,12.55 -0.72,3.69 -1.66,7.4 -2.75,10.99 -0.92,3.06 -1.86,5.63 -2.77,7.71 -1.24,2.69 -2.56,5.04 -4.05,7.05 -1.26,1.74 -2.6,3.34 -4.02,4.69 -1.55,1.48 -3.22,2.77 -4.94,3.81 -1.74,1.09 -3.74,2.06 -5.89,2.82l-0.14 0.07c-1.73,0.59 -3.81,1.09 -6.23,1.41 -3.21,0.46 -6.5,0.49 -9.77,0.09 -3.22,-0.33 -6.53,-1.23 -9.82,-2.58 -3.58,-1.4 -7.27,-3.53 -11.02,-6.33 -3.31,-2.43 -6.59,-5.38 -9.85,-8.76 -3.51,-3.63 -6.78,-7.93 -9.77,-12.82 -2.78,-4.56 -5.33,-9.7 -7.6,-15.3 -2.49,-6.07 -4.74,-12.85 -6.7,-20.27 -1.83,-6.93 -3.44,-14.55 -4.76,-22.83 -1.24,-7.78 -2.05,-15.24 -2.37,-22.32 -0.33,-7.19 -0.18,-14.12 0.46,-20.68 0.62,-6.43 1.68,-12.35 3.13,-17.7 1.69,-5.95 3.73,-11.41 6.15,-16.28 2.44,-4.89 5.41,-9.5 8.83,-13.78 3.44,-4.31 7.41,-8.36 11.79,-12.07l0.14 -0.13c4.39,-3.64 9.58,-7.16 15.51,-10.5 5.47,-3.14 11.55,-6.01 18.19,-8.61l5.55 -2.19z"/>
 </g>
</svg>
